<?xml version="1.0" encoding="UTF-8"?>
<!DOCTYPE svg PUBLIC "-//W3C//DTD SVG 1.1//EN" "http://www.w3.org/Graphics/SVG/1.1/DTD/svg11.dtd">
<svg xmlns="http://www.w3.org/2000/svg" version="1.1" width="512px" height="512px" style="shape-rendering:geometricPrecision; text-rendering:geometricPrecision; image-rendering:optimizeQuality; fill-rule:evenodd; clip-rule:evenodd" xmlns:xlink="http://www.w3.org/1999/xlink">
<g><path style="opacity:0.921" fill="#000000" d="M 185.5,8.5 C 187.017,8.51056 188.184,9.17723 189,10.5C 191.5,14.3333 194,18.1667 196.5,22C 188.911,27.3779 181.411,32.8779 174,38.5C 171.731,42.7135 172.231,46.5469 175.5,50C 194.023,58.5681 198.856,72.0681 190,90.5C 181.93,97.7388 173.43,104.406 164.5,110.5C 160.936,106.386 157.603,102.052 154.5,97.5C 160.714,91.7907 167.38,86.624 174.5,82C 178.677,77.0462 178.343,72.3796 173.5,68C 156.251,59.9268 151.418,47.0934 159,29.5C 160.458,27.04 162.291,24.8734 164.5,23C 171.914,18.6376 178.914,13.8043 185.5,8.5 Z"/></g>
<g><path style="opacity:0.921" fill="#000000" d="M 257.5,8.5 C 259.017,8.51056 260.184,9.17723 261,10.5C 263.5,14.3333 266,18.1667 268.5,22C 260.911,27.3779 253.411,32.8779 246,38.5C 243.731,42.7135 244.231,46.5469 247.5,50C 266.023,58.5681 270.856,72.0681 262,90.5C 253.93,97.7388 245.43,104.406 236.5,110.5C 232.936,106.386 229.603,102.052 226.5,97.5C 232.714,91.7907 239.38,86.624 246.5,82C 250.677,77.0462 250.343,72.3796 245.5,68C 228.251,59.9268 223.418,47.0934 231,29.5C 232.458,27.04 234.291,24.8734 236.5,23C 243.914,18.6376 250.914,13.8043 257.5,8.5 Z"/></g>
<g><path style="opacity:0.921" fill="#000000" d="M 329.5,8.5 C 331.017,8.51056 332.184,9.17723 333,10.5C 335.5,14.3333 338,18.1667 340.5,22C 332.911,27.3779 325.411,32.8779 318,38.5C 315.731,42.7135 316.231,46.5469 319.5,50C 338.023,58.5681 342.856,72.0681 334,90.5C 325.93,97.7388 317.43,104.406 308.5,110.5C 304.936,106.386 301.603,102.052 298.5,97.5C 304.714,91.7907 311.38,86.624 318.5,82C 322.677,77.0462 322.343,72.3796 317.5,68C 300.251,59.9268 295.418,47.0934 303,29.5C 304.458,27.04 306.291,24.8734 308.5,23C 315.914,18.6376 322.914,13.8043 329.5,8.5 Z"/></g>
<g><path style="opacity:0.959" fill="#000000" d="M 51.5,119.5 C 187.5,119.333 323.5,119.5 459.5,120C 461.333,120.5 462.5,121.667 463,123.5C 463.83,135.57 463.33,147.57 461.5,159.5C 469.84,159.334 478.173,159.5 486.5,160C 500.482,165.457 505.982,175.624 503,190.5C 500.167,198.667 494.667,204.167 486.5,207C 473.487,207.167 460.487,207.667 447.5,208.5C 435.124,237.08 417.458,261.913 394.5,283C 384.952,290.722 375.286,298.222 365.5,305.5C 373.322,333.79 380.989,362.123 388.5,390.5C 425.405,398.241 442.238,420.907 439,458.5C 431.334,486.494 413,501.827 384,504.5C 354.478,502.306 335.811,486.973 328,458.5C 324.922,438.742 330.089,421.575 343.5,407C 342.133,404.699 341.466,402.199 341.5,399.5C 284.167,399.5 226.833,399.5 169.5,399.5C 162.829,425.851 155.995,452.184 149,478.5C 143.868,501.982 130.368,508.816 108.5,499C 101.316,492.76 98.4829,484.927 100,475.5C 115.067,418.8 130.234,362.133 145.5,305.5C 117.794,286.96 94.9606,263.627 77,235.5C 71.9728,226.779 67.4728,217.779 63.5,208.5C 50.5128,207.667 37.5128,207.167 24.5,207C 10.5184,201.543 5.01844,191.376 8,176.5C 10.8333,168.333 16.3333,162.833 24.5,160C 32.8267,159.5 41.16,159.334 49.5,159.5C 47.6696,147.57 47.1696,135.57 48,123.5C 48.6897,121.65 49.8564,120.316 51.5,119.5 Z M 64.5,135.5 C 191.833,135.5 319.167,135.5 446.5,135.5C 446.328,143.545 445.661,151.545 444.5,159.5C 432.495,159.333 420.495,159.5 408.5,160C 394.518,165.457 389.018,175.624 392,190.5C 394.833,198.667 400.333,204.167 408.5,207C 415.5,207.333 422.5,207.667 429.5,208C 392.972,278.127 334.972,315.294 255.5,319.5C 176.028,315.294 118.028,278.127 81.5,208C 88.5,207.667 95.5,207.333 102.5,207C 116.482,201.543 121.982,191.376 119,176.5C 116.167,168.333 110.667,162.833 102.5,160C 90.5046,159.5 78.5046,159.333 66.5,159.5C 65.3391,151.545 64.6724,143.545 64.5,135.5 Z M 31.5,175.5 C 52.8359,175.333 74.1693,175.5 95.5,176C 102.347,177.866 104.18,182.032 101,188.5C 99.3523,189.717 97.519,190.55 95.5,191C 74.1667,191.667 52.8333,191.667 31.5,191C 24.6531,189.134 22.8197,184.968 26,178.5C 27.8761,177.391 29.7095,176.391 31.5,175.5 Z M 415.5,175.5 C 436.836,175.333 458.169,175.5 479.5,176C 486.347,177.866 488.18,182.032 485,188.5C 483.352,189.717 481.519,190.55 479.5,191C 458.167,191.667 436.833,191.667 415.5,191C 408.653,189.134 406.82,184.968 410,178.5C 411.876,177.391 413.709,176.391 415.5,175.5 Z M 160.5,313.5 C 165.217,315.009 169.55,317.176 173.5,320C 169.745,334.189 165.911,348.355 162,362.5C 161.044,366.572 161.544,370.405 163.5,374C 194.083,375.16 224.749,375.66 255.5,375.5C 286.251,375.66 316.917,375.16 347.5,374C 349.456,370.405 349.956,366.572 349,362.5C 345.089,348.355 341.255,334.189 337.5,320C 341.17,317.375 345.17,315.208 349.5,313.5C 356.911,339.646 364.245,365.813 371.5,392C 366.835,393.611 362.168,395.111 357.5,396.5C 357.293,391.703 355.626,387.537 352.5,384C 287.833,383.333 223.167,383.333 158.5,384C 156.062,386.295 154.562,389.128 154,392.5C 146,422.5 138,452.5 130,482.5C 127.839,486.124 124.672,487.291 120.5,486C 118.416,484.499 117.083,482.499 116.5,480C 131.405,424.546 146.072,369.046 160.5,313.5 Z M 189.5,325.5 C 233.5,338.833 277.5,338.833 321.5,325.5C 324.113,336.785 327.113,347.951 330.5,359C 280.5,359.667 230.5,359.667 180.5,359C 183.887,347.951 186.887,336.785 189.5,325.5 Z M 374.5,408.5 C 398.99,405.857 414.823,416.19 422,439.5C 424.233,467.27 411.566,483.27 384,487.5C 355.914,483.748 342.914,467.748 345,439.5C 349.244,423.758 359.077,413.425 374.5,408.5 Z M 381.5,431.5 C 396.312,433.452 401.479,441.452 397,455.5C 388,466.167 379,466.167 370,455.5C 365.505,443.491 369.338,435.491 381.5,431.5 Z"/></g>
<g><path style="opacity:0.93" fill="#000000" d="M 380.5,414.5 C 401.844,415.012 413.844,425.845 416.5,447C 414.734,467.266 403.734,478.433 383.5,480.5C 363.266,478.433 352.266,467.266 350.5,447C 352.457,428.549 362.457,417.715 380.5,414.5 Z M 381.5,431.5 C 369.338,435.491 365.505,443.491 370,455.5C 379,466.167 388,466.167 397,455.5C 401.479,441.452 396.312,433.452 381.5,431.5 Z"/></g>
</svg>
