<?xml version="1.0" encoding="UTF-8"?>
<!DOCTYPE svg PUBLIC "-//W3C//DTD SVG 1.1//EN" "http://www.w3.org/Graphics/SVG/1.1/DTD/svg11.dtd">
<svg xmlns="http://www.w3.org/2000/svg" version="1.1" width="512px" height="512px" style="shape-rendering:geometricPrecision; text-rendering:geometricPrecision; image-rendering:optimizeQuality; fill-rule:evenodd; clip-rule:evenodd" xmlns:xlink="http://www.w3.org/1999/xlink">
<g><path style="opacity:0.918" fill="#000000" d="M 123.5,15.5 C 128.447,14.6276 132.613,15.9609 136,19.5C 144.346,30.3354 145.679,42.002 140,54.5C 136.333,58.8333 132.667,63.1667 129,67.5C 128.333,69.8333 128.333,72.1667 129,74.5C 131.93,78.4249 134.43,82.5916 136.5,87C 134.544,95.4038 129.544,97.7372 121.5,94C 110.809,83.0133 108.642,70.5133 115,56.5C 118.667,52.1667 122.333,47.8333 126,43.5C 126.667,41.1667 126.667,38.8333 126,36.5C 123.07,32.5751 120.57,28.4084 118.5,24C 119.043,20.3997 120.71,17.5664 123.5,15.5 Z"/></g>
<g><path style="opacity:0.949" fill="#000000" d="M 248.5,15.5 C 261.822,13.0798 271.656,17.7465 278,29.5C 279.458,35.9208 279.958,42.2541 279.5,48.5C 308.114,56.4718 331.78,71.9718 350.5,95C 362.89,99.906 369.89,109.073 371.5,122.5C 438.572,147.933 477.072,196.266 487,267.5C 488.086,284.914 487.419,302.247 485,319.5C 483.471,322.934 480.804,324.6 477,324.5C 456,321.167 443,309.167 438,288.5C 437.02,243.865 418.686,208.531 383,182.5C 386.028,208.756 388.695,235.089 391,261.5C 395.271,312.855 395.271,364.188 391,415.5C 389.774,418.952 388.274,422.285 386.5,425.5C 390.301,429.434 392.801,434.101 394,439.5C 395.746,451.804 397.246,464.138 398.5,476.5C 398.693,485.459 394.693,491.626 386.5,495C 299.167,495.667 211.833,495.667 124.5,495C 114.174,490.073 110.341,481.906 113,470.5C 114.251,460.156 115.585,449.823 117,439.5C 118.199,434.101 120.699,429.434 124.5,425.5C 121.161,420.315 119.327,414.649 119,408.5C 115.561,351.24 116.727,294.074 122.5,237C 99.3821,210.879 75.8821,185.046 52,159.5C 51.0467,157.545 49.7134,155.878 48,154.5C 47.3333,151.5 47.3333,148.5 48,145.5C 68.1327,133.008 89.966,124.842 113.5,121C 122.554,119.744 131.554,118.411 140.5,117C 142.986,105.848 149.652,98.5151 160.5,95C 179.22,71.9718 202.886,56.4718 231.5,48.5C 228.437,32.9592 234.103,21.9592 248.5,15.5 Z M 252.5,32.5 C 261.85,32.3654 264.517,36.532 260.5,45C 251.956,48.3224 248.123,45.4891 249,36.5C 249.69,34.6498 250.856,33.3164 252.5,32.5 Z M 248.5,63.5 C 276.634,62.1531 300.967,70.9864 321.5,90C 299.57,88.1474 277.57,87.314 255.5,87.5C 233.431,87.314 211.431,88.1474 189.5,90C 206.295,74.5992 225.962,65.7659 248.5,63.5 Z M 251.5,103.5 C 283.758,103.637 315.758,106.47 347.5,112C 349,113.5 350.5,115 352,116.5C 374.114,214.101 381.448,312.768 374,412.5C 373.385,414.116 372.385,415.449 371,416.5C 294,415.167 217,415.167 140,416.5C 138.615,415.449 137.615,414.116 137,412.5C 129.553,312.758 136.886,214.091 159,116.5C 160.5,115 162,113.5 163.5,112C 168.745,110.57 174.078,109.57 179.5,109C 203.574,106.067 227.574,104.234 251.5,103.5 Z M 128.5,135.5 C 131.167,135.5 133.833,135.5 136.5,135.5C 132.285,160.792 128.285,186.125 124.5,211.5C 106.011,192.177 87.6781,172.677 69.5,153C 88.4029,144.196 108.07,138.363 128.5,135.5 Z M 375.5,142.5 C 429.963,167.021 461.463,209.021 470,268.5C 470.833,280.514 470.666,292.514 469.5,304.5C 463.42,300.92 458.92,295.92 456,289.5C 454.578,248.191 439.744,212.691 411.5,183C 401.625,174.143 390.792,166.643 379,160.5C 377.51,154.559 376.343,148.559 375.5,142.5 Z M 203.5,166.5 C 218.227,166.879 224.894,174.546 223.5,189.5C 219.033,189.133 214.7,189.633 210.5,191C 206.5,195.667 206.5,200.333 210.5,205C 214.7,206.367 219.033,206.867 223.5,206.5C 223.5,208.833 223.5,211.167 223.5,213.5C 219.033,213.133 214.7,213.633 210.5,215C 206.5,219.667 206.5,224.333 210.5,229C 214.7,230.367 219.033,230.867 223.5,230.5C 223.5,232.833 223.5,235.167 223.5,237.5C 219.033,237.133 214.7,237.633 210.5,239C 206.5,243.667 206.5,248.333 210.5,253C 214.7,254.367 219.033,254.867 223.5,254.5C 223.5,256.833 223.5,259.167 223.5,261.5C 217.158,261.334 210.825,261.5 204.5,262C 200.762,263.399 199.096,266.066 199.5,270C 199.096,273.934 200.762,276.601 204.5,278C 210.825,278.5 217.158,278.666 223.5,278.5C 223.5,280.833 223.5,283.167 223.5,285.5C 219.033,285.133 214.7,285.633 210.5,287C 206.5,291.667 206.5,296.333 210.5,301C 214.7,302.367 219.033,302.867 223.5,302.5C 223.5,304.833 223.5,307.167 223.5,309.5C 219.033,309.133 214.7,309.633 210.5,311C 206.5,315.667 206.5,320.333 210.5,325C 214.7,326.367 219.033,326.867 223.5,326.5C 223.5,328.833 223.5,331.167 223.5,333.5C 219.033,333.133 214.7,333.633 210.5,335C 206.5,339.667 206.5,344.333 210.5,349C 214.7,350.367 219.033,350.867 223.5,350.5C 223.824,360.217 223.324,369.884 222,379.5C 215.203,390.685 206.537,392.351 196,384.5C 193.305,381.352 191.972,377.685 192,373.5C 191.333,309.833 191.333,246.167 192,182.5C 192.673,174.796 196.506,169.463 203.5,166.5 Z M 148.5,431.5 C 219.834,431.333 291.167,431.5 362.5,432C 369.566,432.447 374.399,435.947 377,442.5C 378.582,453.488 380.082,464.488 381.5,475.5C 381.291,476.994 380.624,478.161 379.5,479C 296.833,479.667 214.167,479.667 131.5,479C 130.376,478.161 129.709,476.994 129.5,475.5C 130.918,464.488 132.418,453.488 134,442.5C 136.821,436.023 141.655,432.356 148.5,431.5 Z"/></g>
<g><path style="opacity:0.918" fill="#000000" d="M 83.5,31.5 C 88.4466,30.6276 92.6132,31.9609 96,35.5C 104.346,46.3354 105.679,58.002 100,70.5C 96.3333,74.8333 92.6667,79.1667 89,83.5C 88.3333,85.8333 88.3333,88.1667 89,90.5C 91.9296,94.4249 94.4296,98.5916 96.5,103C 94.5439,111.404 89.5439,113.737 81.5,110C 70.809,99.0133 68.6423,86.5133 75,72.5C 78.6667,68.1667 82.3333,63.8333 86,59.5C 86.6667,57.1667 86.6667,54.8333 86,52.5C 83.0704,48.5751 80.5704,44.4084 78.5,40C 79.0435,36.3997 80.7101,33.5664 83.5,31.5 Z"/></g>
<g><path style="opacity:0.918" fill="#000000" d="M 43.5,47.5 C 48.4466,46.6276 52.6132,47.9609 56,51.5C 64.3458,62.3354 65.6791,74.002 60,86.5C 56.3333,90.8333 52.6667,95.1667 49,99.5C 48.3333,101.833 48.3333,104.167 49,106.5C 51.9296,110.425 54.4296,114.592 56.5,119C 54.5439,127.404 49.5439,129.737 41.5,126C 30.809,115.013 28.6423,102.513 35,88.5C 38.6667,84.1667 42.3333,79.8333 46,75.5C 46.6667,73.1667 46.6667,70.8333 46,68.5C 43.0704,64.5751 40.5704,60.4084 38.5,56C 39.0435,52.3997 40.7101,49.5664 43.5,47.5 Z"/></g>
<g><path style="opacity:0.968" fill="#000000" d="M 201.5,149.5 C 220.165,148.018 232.665,156.018 239,173.5C 239.667,243.167 239.667,312.833 239,382.5C 231.689,401.907 217.856,409.407 197.5,405C 186.599,401.099 179.432,393.599 176,382.5C 175.333,312.833 175.333,243.167 176,173.5C 180.217,160.778 188.717,152.778 201.5,149.5 Z M 203.5,166.5 C 196.506,169.463 192.673,174.796 192,182.5C 191.333,246.167 191.333,309.833 192,373.5C 191.972,377.685 193.305,381.352 196,384.5C 206.537,392.351 215.203,390.685 222,379.5C 223.324,369.884 223.824,360.217 223.5,350.5C 219.033,350.867 214.7,350.367 210.5,349C 206.5,344.333 206.5,339.667 210.5,335C 214.7,333.633 219.033,333.133 223.5,333.5C 223.5,331.167 223.5,328.833 223.5,326.5C 219.033,326.867 214.7,326.367 210.5,325C 206.5,320.333 206.5,315.667 210.5,311C 214.7,309.633 219.033,309.133 223.5,309.5C 223.5,307.167 223.5,304.833 223.5,302.5C 219.033,302.867 214.7,302.367 210.5,301C 206.5,296.333 206.5,291.667 210.5,287C 214.7,285.633 219.033,285.133 223.5,285.5C 223.5,283.167 223.5,280.833 223.5,278.5C 217.158,278.666 210.825,278.5 204.5,278C 200.762,276.601 199.096,273.934 199.5,270C 199.096,266.066 200.762,263.399 204.5,262C 210.825,261.5 217.158,261.334 223.5,261.5C 223.5,259.167 223.5,256.833 223.5,254.5C 219.033,254.867 214.7,254.367 210.5,253C 206.5,248.333 206.5,243.667 210.5,239C 214.7,237.633 219.033,237.133 223.5,237.5C 223.5,235.167 223.5,232.833 223.5,230.5C 219.033,230.867 214.7,230.367 210.5,229C 206.5,224.333 206.5,219.667 210.5,215C 214.7,213.633 219.033,213.133 223.5,213.5C 223.5,211.167 223.5,208.833 223.5,206.5C 219.033,206.867 214.7,206.367 210.5,205C 206.5,200.333 206.5,195.667 210.5,191C 214.7,189.633 219.033,189.133 223.5,189.5C 224.894,174.546 218.227,166.879 203.5,166.5 Z"/></g>
</svg>
