<?xml version="1.0" encoding="UTF-8"?>
<!DOCTYPE svg PUBLIC "-//W3C//DTD SVG 1.1//EN" "http://www.w3.org/Graphics/SVG/1.1/DTD/svg11.dtd">
<svg xmlns="http://www.w3.org/2000/svg" version="1.1" width="512px" height="512px" style="shape-rendering:geometricPrecision; text-rendering:geometricPrecision; image-rendering:optimizeQuality; fill-rule:evenodd; clip-rule:evenodd" xmlns:xlink="http://www.w3.org/1999/xlink">
<g><path style="opacity:0.936" fill="#000000" d="M 511.5,355.5 C 511.5,363.833 511.5,372.167 511.5,380.5C 509.021,385.143 505.355,388.643 500.5,391C 489.172,391.5 477.838,391.667 466.5,391.5C 466.667,408.503 466.5,425.503 466,442.5C 460.661,449.361 455.661,449.027 451,441.5C 450.5,424.837 450.333,408.17 450.5,391.5C 440.833,391.5 431.167,391.5 421.5,391.5C 426.025,405.909 430.859,420.243 436,434.5C 438.027,444.474 434.193,448.307 424.5,446C 422.951,444.786 421.785,443.286 421,441.5C 415.389,424.835 409.889,408.168 404.5,391.5C 329.833,391.667 255.166,391.5 180.5,391C 176.251,387.623 175.418,383.457 178,378.5C 178.75,377.874 179.584,377.374 180.5,377C 285.445,375.84 390.445,375.006 495.5,374.5C 496.833,369.833 496.833,365.167 495.5,360.5C 335.5,359.167 175.5,359.167 15.5,360.5C 14.1667,365.167 14.1667,369.833 15.5,374.5C 63.2217,375.014 110.888,375.848 158.5,377C 163.833,381.667 163.833,386.333 158.5,391C 141.17,391.5 123.837,391.667 106.5,391.5C 101.111,408.168 95.6106,424.835 90,441.5C 85.7754,448.358 80.7754,449.025 75,443.5C 74.3333,440.5 74.3333,437.5 75,434.5C 80.1412,420.243 84.9745,405.909 89.5,391.5C 79.8333,391.5 70.1667,391.5 60.5,391.5C 60.6666,408.17 60.4999,424.837 60,441.5C 55.3392,449.027 50.3392,449.361 45,442.5C 44.5001,425.503 44.3334,408.503 44.5,391.5C 33.1618,391.667 21.8284,391.5 10.5,391C 5.64549,388.643 1.97883,385.143 -0.5,380.5C -0.5,372.167 -0.5,363.833 -0.5,355.5C 1.72451,349.45 6.05784,345.617 12.5,344C 22.1609,343.5 31.8276,343.334 41.5,343.5C 41.6802,329.828 48.3469,321.328 61.5,318C 68.4921,317.5 75.4921,317.334 82.5,317.5C 82.6667,282.498 82.5,247.498 82,212.5C 81,211.833 80,211.167 79,210.5C 67.1667,222.333 55.3333,234.167 43.5,246C 33.054,249.542 28.8874,246.042 31,235.5C 42.6667,223.833 54.3333,212.167 66,200.5C 61.478,186.82 64.6447,175.32 75.5,166C 84.2696,160.884 93.2696,160.217 102.5,164C 116.667,149.833 130.833,135.667 145,121.5C 143.828,115.26 143.495,108.926 144,102.5C 145.717,97.4514 148.884,93.618 153.5,91C 149.635,84.9354 146.301,78.602 143.5,72C 145.24,64.7581 149.574,62.4247 156.5,65C 160.338,70.9937 164.338,76.8271 168.5,82.5C 178.914,78.3353 187.914,80.3353 195.5,88.5C 198.928,84.4521 203.261,81.9521 208.5,81C 293.167,80.3333 377.833,80.3333 462.5,81C 473.108,83.2749 479.275,89.7749 481,100.5C 481.667,156.833 481.667,213.167 481,269.5C 479.387,279.78 473.553,286.28 463.5,289C 431.162,289.167 398.828,289.667 366.5,290.5C 370.43,299.125 374.264,307.792 378,316.5C 386.417,316.562 394.25,318.729 401.5,323C 407.499,328.489 410.499,335.322 410.5,343.5C 439.835,343.333 469.169,343.5 498.5,344C 504.917,345.589 509.251,349.423 511.5,355.5 Z M 176.5,96.5 C 177.873,96.3433 179.207,96.51 180.5,97C 196.708,112.71 213.042,128.21 229.5,143.5C 211.783,154.53 193.783,165.196 175.5,175.5C 169.778,153.446 164.445,131.279 159.5,109C 159.585,107.893 159.919,106.893 160.5,106C 166.062,103.059 171.395,99.8923 176.5,96.5 Z M 211.5,96.5 C 294.501,96.3333 377.501,96.5 460.5,97C 462.815,98.1094 464.315,99.9427 465,102.5C 465.667,146.167 465.667,189.833 465,233.5C 464.654,235.848 463.487,237.681 461.5,239C 377.833,239.667 294.167,239.667 210.5,239C 208.667,238.5 207.5,237.333 207,235.5C 206.667,231.167 206.333,226.833 206,222.5C 204.02,217.094 200.186,215.261 194.5,217C 193.333,218.167 192.167,219.333 191,220.5C 190.333,237.833 190.333,255.167 191,272.5C 193.5,281 199,286.5 207.5,289C 239.832,289.5 272.165,289.667 304.5,289.5C 301.129,298.582 297.462,307.582 293.5,316.5C 274.745,315.61 263.745,324.276 260.5,342.5C 219.839,343.5 179.172,343.833 138.5,343.5C 139.136,329.3 132.469,320.8 118.5,318C 111.842,317.5 105.175,317.334 98.5,317.5C 98.5,282.167 98.5,246.833 98.5,211.5C 105.986,209.519 111.153,204.852 114,197.5C 115.894,190.089 115.894,182.755 114,175.5C 126,163.5 138,151.5 150,139.5C 153.244,155.061 157.244,170.395 162,185.5C 171.223,193.453 180.557,193.453 190,185.5C 190.333,189.833 190.667,194.167 191,198.5C 196.954,204.172 201.954,203.505 206,196.5C 206.333,189.833 206.667,183.167 207,176.5C 217.253,169.955 227.753,163.788 238.5,158C 246.932,151.106 248.432,142.939 243,133.5C 231.167,122.333 219.333,111.167 207.5,100C 208.731,98.5952 210.064,97.4286 211.5,96.5 Z M 88.5,177.5 C 98.1804,179.007 101.347,184.34 98,193.5C 93.2748,198.314 88.2748,198.647 83,194.5C 78.57,186.712 80.4034,181.045 88.5,177.5 Z M 464.5,254.5 C 465.86,259.739 465.693,265.072 464,270.5C 463.097,271.701 461.931,272.535 460.5,273C 377.167,273.667 293.833,273.667 210.5,273C 209.333,271.833 208.167,270.667 207,269.5C 206.501,264.845 206.334,260.179 206.5,255.5C 292.668,255.833 378.668,255.499 464.5,254.5 Z M 322.5,289.5 C 331.173,289.334 339.84,289.5 348.5,290C 352.355,298.877 356.355,307.711 360.5,316.5C 343.843,317.666 327.177,317.833 310.5,317C 314.793,307.95 318.793,298.784 322.5,289.5 Z M 63.5,333.5 C 81.1698,333.333 98.8365,333.5 116.5,334C 121.144,335.448 123.144,338.615 122.5,343.5C 100.833,343.5 79.1667,343.5 57.5,343.5C 57.4118,338.92 59.4118,335.587 63.5,333.5 Z M 284.5,333.5 C 318.835,333.333 353.168,333.5 387.5,334C 391.892,335.606 394.225,338.772 394.5,343.5C 355.165,343.667 315.832,343.5 276.5,343C 277.583,338.423 280.249,335.257 284.5,333.5 Z"/></g>
</svg>
