<?xml version="1.0" encoding="UTF-8"?>
<svg version="1.1" xmlns="http://www.w3.org/2000/svg" width="512" height="512">
<path d="M0 0 C4.03216066 2.92257345 5.75855188 7.19684653 6.83984375 11.90234375 C6.96266677 15.71703999 6.57808858 19.42638471 6.15234375 23.21484375 C6.05002441 24.25705078 5.94770508 25.29925781 5.84228516 26.37304688 C5.52607379 29.55162484 5.18453258 32.72674295 4.83984375 35.90234375 C4.64183262 37.83319063 4.44514871 39.76417422 4.25 41.6953125 C3.80055144 46.1000693 3.32765353 50.50167684 2.83984375 54.90234375 C4.75434326 55.22996704 4.75434326 55.22996704 6.70751953 55.56420898 C14.95051381 57.21874558 22.9299172 59.84441189 30.95703125 62.3125 C32.70421962 62.84577845 34.45154668 63.37860269 36.19900513 63.91099548 C40.7721915 65.30546993 45.34366402 66.70547811 49.91473389 68.10687256 C56.37334448 70.08583128 62.83426962 72.05722293 69.29495239 74.02940369 C72.73003177 75.07800726 76.16445039 76.12873397 79.59835815 77.1811676 C81.1630628 77.6599314 82.7277701 78.13868655 84.29248047 78.61743164 C85.00109726 78.835112 85.70971405 79.05279236 86.43980408 79.27706909 C88.23748938 79.82650255 90.03848745 80.36506817 91.83984375 80.90234375 C92.53301193 81.11154449 93.22618011 81.32074524 93.94035339 81.5362854 C96.57019146 82.04309197 99.10152759 82.03534479 101.77905273 82.04418945 C102.97807724 82.05122391 104.17710175 82.05825836 105.41246033 82.06550598 C107.35458153 82.0717524 107.35458153 82.0717524 109.3359375 82.078125 C110.68914052 82.08856327 112.04233626 82.09998817 113.39552307 82.11235046 C119.12684662 82.16454691 124.85804408 82.21265195 130.58959961 82.22827148 C134.10231255 82.2384684 137.61443272 82.26808911 141.12690926 82.30959129 C143.09009772 82.32759013 145.05343959 82.32527701 147.01670837 82.32234192 C162.89451572 82.53567188 174.84154741 87.55569599 186.375 98.25390625 C200.53686683 113.16880545 207.56171939 131.39484498 207.90625 151.84375 C207.29438612 170.8115304 198.9318861 187.0943399 190.83984375 203.90234375 C190.38802734 204.8444873 189.93621094 205.78663086 189.47070312 206.75732422 C173.26722922 240.35640169 153.6612735 272.26228628 131.71484375 302.40234375 C131.26520264 303.02004639 130.81556152 303.63774902 130.35229492 304.27416992 C125.03657598 311.47996767 125.03657598 311.47996767 120.65234375 313.02734375 C115.86265563 312.8703048 114.54501809 311.69392502 111.1953125 308.44140625 C106.49056732 303.36995622 101.96898648 298.151109 97.50341797 292.86865234 C95.87398138 290.94269369 94.23525677 289.02504992 92.59375 287.109375 C91.59206589 285.93652408 90.59074635 284.76336168 89.58984375 283.58984375 C89.12408936 283.04505371 88.65833496 282.50026367 88.1784668 281.93896484 C83.95684572 276.95536151 83.95684572 276.95536151 83.52734375 273.08984375 C83.92085552 269.0760237 85.11643504 267.83137896 87.83984375 264.90234375 C90.46875 263.19921875 90.46875 263.19921875 93.40234375 261.65234375 C116.83506895 248.39660504 125.50753913 227.02734281 134.65234375 203.08984375 C136.05213442 199.45083719 137.45576165 195.81331474 138.859375 192.17578125 C139.3719133 190.84438866 139.3719133 190.84438866 139.89480591 189.48609924 C141.91081553 184.26117975 143.97181295 179.05847189 146.1015625 173.87890625 C146.57166748 172.73139893 147.04177246 171.5838916 147.52612305 170.40161133 C148.37465545 168.34327765 149.23104681 166.28815824 150.09692383 164.23706055 C152.77745807 157.80043034 152.77745807 157.80043034 152.83984375 150.90234375 C150.83984375 147.90234375 150.83984375 147.90234375 147.83984375 145.90234375 C142.4495837 145.13668181 139.28296434 147.12437646 134.96484375 150.02734375 C122.29688316 158.04260467 107.01355537 163.90234375 91.83984375 163.90234375 C91.6536145 165.05899536 91.6536145 165.05899536 91.46362305 166.23901367 C88.11554626 186.91498675 84.55231168 207.55454508 80.88955688 228.1769104 C80.39711071 230.95148868 79.90955999 233.72686042 79.42611694 236.50302124 C78.73851329 240.44946725 78.03407567 244.39273183 77.328125 248.3359375 C77.12200592 249.53035461 76.91588684 250.72477173 76.70352173 251.9553833 C76.50269989 253.06121765 76.30187805 254.167052 76.0949707 255.30639648 C75.92431595 256.2703685 75.75366119 257.23434052 75.57783508 258.2275238 C74.66944267 261.51995563 73.28339908 264.45878842 70.83984375 266.90234375 C68.52984375 266.90234375 66.21984375 266.90234375 63.83984375 266.90234375 C63.83984375 275.48234375 63.83984375 284.06234375 63.83984375 292.90234375 C65.81984375 293.23234375 67.79984375 293.56234375 69.83984375 293.90234375 C74.74499927 298.03350499 74.98055267 303.55996563 75.8203125 309.56640625 C76.0757206 311.25219788 76.0757206 311.25219788 76.33628845 312.9720459 C76.81377077 316.14636033 77.27671767 319.3224202 77.73374176 322.49973297 C78.23248046 325.94401466 78.74891703 329.3856457 79.26318359 332.82763672 C80.22461121 339.27948573 81.17331319 345.73313343 82.11767578 352.1875 C83.94661985 364.67706666 85.8185915 377.16015267 87.68771553 389.64375687 C89.25560457 400.12318256 90.81614092 410.60370608 92.37714005 421.08415985 C92.76960639 423.71740338 93.16235672 426.35060201 93.55572128 428.98371124 C94.69147585 436.586355 95.82273295 444.18963533 96.94635201 451.79408264 C97.29445544 454.14445544 97.64431491 456.4945689 97.99601555 458.84440613 C98.48142578 462.08976103 98.96049211 465.33599215 99.43798828 468.58251953 C99.58126147 469.53069864 99.72453466 470.47887775 99.87214947 471.45578957 C101.73116647 484.22614084 101.73116647 484.22614084 99.42607307 488.56105137 C95.5617815 492.05936311 92.17235921 491.59445512 87.12255859 491.53053284 C86.12557638 491.53762722 85.12859417 491.54472161 84.10140038 491.55203098 C80.75080531 491.56967454 77.4013605 491.55147304 74.05078125 491.53344727 C71.65276561 491.53858362 69.25475373 491.54586275 66.85675049 491.55513 C61.01376963 491.57175942 55.17109382 491.56498531 49.32814264 491.54704178 C44.57996414 491.53302256 39.83187642 491.5291215 35.0836792 491.53248405 C34.40818791 491.5329615 33.73269662 491.53343894 33.03673589 491.53393085 C31.66453693 491.53495717 30.29233799 491.53601253 28.92013907 491.53709661 C16.78328102 491.54566646 4.6465844 491.52897956 -7.49023438 491.49926758 C-19.27025128 491.47042942 -31.0500356 491.46334621 -42.83007812 491.47875977 C-55.65423546 491.49551648 -68.47828234 491.49956159 -81.30244255 491.48204941 C-82.66962559 491.480205 -84.03680864 491.47837027 -85.4039917 491.47654533 C-86.07669181 491.47563324 -86.74939191 491.47472115 -87.44247687 491.47378143 C-92.18556747 491.46817271 -96.92860421 491.47148631 -101.67169189 491.47809029 C-108.05421417 491.486624 -114.43647625 491.47368131 -120.81894684 491.44624138 C-123.16514335 491.4393389 -125.51137115 491.43927938 -127.85756683 491.44645691 C-131.05304677 491.45510805 -134.24747903 491.43926831 -137.44287109 491.41700745 C-138.37788263 491.42524821 -139.31289417 491.43348898 -140.2762394 491.44197947 C-146.49005542 491.36173091 -146.49005542 491.36173091 -149.74266243 489.13190842 C-154.51847141 481.62007676 -150.08682422 468.33932146 -148.80517578 459.90551758 C-148.55165372 458.2012273 -148.29876154 456.49684323 -148.04644775 454.79237366 C-147.36296844 450.18831446 -146.67039213 445.58566684 -145.97586298 440.98326325 C-145.24872294 436.15594267 -144.52917757 431.32748948 -143.80856323 426.49919128 C-142.59797503 418.39591302 -141.38160687 410.29351882 -140.16162109 402.19165039 C-138.75254627 392.83366744 -137.35193368 383.47444848 -135.95599282 374.11449796 C-134.6106263 365.09459095 -133.25995686 356.07548622 -131.90664291 347.05676842 C-131.33172304 343.22504839 -130.75852969 339.39307602 -130.18671036 335.56089211 C-129.51306498 331.04827563 -128.83473169 326.53638772 -128.15280914 322.02501488 C-127.90370112 320.37209281 -127.65616138 318.71893349 -127.41032791 317.06552124 C-127.07377969 314.80385404 -126.73147072 312.54312996 -126.38772583 310.282547 C-126.19783648 309.0188519 -126.00794712 307.7551568 -125.81230354 306.45316792 C-123.99664711 296.56724674 -123.99664711 296.56724674 -120.72265625 293.96484375 C-118.16015625 292.90234375 -118.16015625 292.90234375 -115.16015625 292.90234375 C-115.16015625 284.32234375 -115.16015625 275.74234375 -115.16015625 266.90234375 C-117.14015625 266.90234375 -119.12015625 266.90234375 -121.16015625 266.90234375 C-124.70135618 263.61031725 -125.76604083 260.63431207 -126.54467773 255.94140625 C-126.85035927 254.17301392 -126.85035927 254.17301392 -127.16221619 252.36889648 C-127.36649734 251.10118408 -127.5707785 249.83347168 -127.78125 248.52734375 C-128.00846984 247.19770508 -128.23742866 245.86836253 -128.46803284 244.53930664 C-129.19485184 240.32977034 -129.89746345 236.11637793 -130.59765625 231.90234375 C-131.40696626 227.04046912 -132.22663145 222.18067669 -133.06752205 217.32415771 C-133.39590709 215.40043393 -133.70780085 213.47391766 -134.01914978 211.54736328 C-138.35573335 186.31356888 -152.9752394 165.16299203 -169.16015625 145.90234375 C-169.60327148 145.37044434 -170.04638672 144.83854492 -170.50292969 144.29052734 C-177.05403754 136.44188878 -183.81387789 129.01944878 -191.16015625 121.90234375 C-202.56706045 110.58278185 -202.56706045 110.58278185 -204.28515625 105.71484375 C-204.06632723 100.79119071 -201.6142058 98.15712121 -198.16015625 94.90234375 C-189.06040467 87.49689738 -177.03062276 84.0647602 -165.43530273 83.69702148 C-147.10016792 83.01834809 -130.58214495 77.85037982 -113.2286377 72.37994385 C-109.36741147 71.1681901 -105.49788291 69.98359946 -101.62890625 68.796875 C-95.74049828 66.98750726 -89.85576355 65.16678977 -83.97460938 63.33398438 C-77.38091738 61.27989883 -70.78443437 59.23596925 -64.17578125 57.23046875 C-62.98236115 56.86305573 -62.98236115 56.86305573 -61.76483154 56.48822021 C-58.78855091 55.59010946 -56.2881116 54.90234375 -53.16015625 54.90234375 C-53.28656494 53.8035791 -53.41297363 52.70481445 -53.54321289 51.57275391 C-54.01409827 47.45508963 -54.47106738 43.33597505 -54.92407227 39.21630859 C-55.12118668 37.44115064 -55.32195972 35.66639466 -55.52661133 33.89208984 C-58.34082612 9.43800826 -58.34082612 9.43800826 -53.59765625 2.96484375 C-50.23929195 -0.44962687 -46.73096027 -1.90493803 -42.16015625 -3.09765625 C-40.92136719 -3.44441406 -39.68257812 -3.79117187 -38.40625 -4.1484375 C-26.09144833 -7.18010222 -11.33500138 -5.7597385 0 0 Z M-40.16015625 14.90234375 C-39.75573401 19.26272319 -39.34668373 23.62263618 -38.93334961 27.98217773 C-38.79340551 29.46513114 -38.65472408 30.94820428 -38.51733398 32.43139648 C-38.31956962 34.56396741 -38.11726005 36.69606576 -37.9140625 38.828125 C-37.79361572 40.11114502 -37.67316895 41.39416504 -37.54907227 42.71606445 C-37.26547712 45.91797322 -37.26547712 45.91797322 -36.16015625 48.90234375 C-34.98453125 48.65484375 -34.98453125 48.65484375 -33.78515625 48.40234375 C-27.10354237 47.48074184 -20.79032167 47.68809834 -14.16015625 48.90234375 C-13.65003011 44.94524823 -13.15393979 40.98650907 -12.66015625 37.02734375 C-12.51707031 35.91875 -12.37398437 34.81015625 -12.2265625 33.66796875 C-11.40759604 27.03824027 -10.95608042 20.58204794 -11.16015625 13.90234375 C-21.41836023 10.7459733 -30.16521717 11.22877624 -40.16015625 14.90234375 Z M-33.03027344 65.5546875 C-34.21119568 65.91506104 -35.39211792 66.27543457 -36.60882568 66.64672852 C-37.89159791 67.04431412 -39.17433222 67.44202207 -40.45703125 67.83984375 C-41.77395947 68.24389551 -43.09103939 68.64745315 -44.40826416 69.05053711 C-47.86869813 70.11091408 -51.32703348 71.17798145 -54.78497314 72.24645996 C-58.31634217 73.33632732 -61.84965676 74.4198481 -65.3828125 75.50390625 C-72.3105124 77.6305156 -79.23600729 79.76419741 -86.16015625 81.90234375 C-86.16015625 82.23234375 -86.16015625 82.56234375 -86.16015625 82.90234375 C-45.90015625 82.90234375 -5.64015625 82.90234375 35.83984375 82.90234375 C32.92564793 80.95954654 30.74179464 80.12673431 27.42211914 79.11474609 C26.31409439 78.77454437 25.20606964 78.43434265 24.06446838 78.08383179 C22.26911903 77.54153427 22.26911903 77.54153427 20.4375 76.98828125 C19.20825302 76.61377838 17.97900604 76.23927551 16.71250916 75.85342407 C14.11181328 75.06175865 11.51004011 74.27376473 8.9074707 73.48828125 C5.57521288 72.48220725 2.24593035 71.46666378 -1.08258724 70.44829369 C-4.26178143 69.47712934 -7.44349743 68.51435678 -10.625 67.55078125 C-11.81987534 67.18520111 -13.01475067 66.81962097 -14.24583435 66.44296265 C-15.35701126 66.10906525 -16.46818817 65.77516785 -17.61303711 65.43115234 C-18.58994003 65.13518158 -19.56684296 64.83921082 -20.573349 64.53427124 C-25.18551805 63.40757098 -28.60772449 64.19390321 -33.03027344 65.5546875 Z M-169.34765625 101.27734375 C-170.49621094 101.53257813 -171.64476562 101.7878125 -172.828125 102.05078125 C-176.00080516 102.86161862 -179.06943613 103.82364022 -182.16015625 104.90234375 C-179.13012911 108.5235957 -176.09233044 112.03115914 -172.72265625 115.33984375 C-168.98961333 119.02408872 -165.56367414 122.91405156 -162.16015625 126.90234375 C-161.7312207 127.4010498 -161.30228516 127.89975586 -160.86035156 128.41357422 C-150.51560707 140.4442615 -150.51560707 140.4442615 -146.16015625 146.90234375 C-144.89236836 144.36676798 -145.27843885 143.31241807 -145.78100586 140.54443359 C-145.94124741 139.64365082 -146.10148895 138.74286804 -146.2665863 137.81478882 C-146.44673782 136.84079132 -146.62688934 135.86679382 -146.8125 134.86328125 C-146.99148331 133.86728912 -147.17046661 132.871297 -147.35487366 131.84512329 C-147.92966293 128.65471848 -148.51355445 125.46605543 -149.09765625 122.27734375 C-149.48822946 120.11859792 -149.87821115 117.95974497 -150.26757812 115.80078125 C-151.22490278 110.50003871 -152.1897117 105.20069911 -153.16015625 99.90234375 C-154.58240118 99.88640049 -156.0046986 99.87510325 -157.42700195 99.86572266 C-158.21903519 99.85892487 -159.01106842 99.85212708 -159.82710266 99.84512329 C-163.10696818 99.92556525 -166.15446205 100.54850168 -169.34765625 101.27734375 Z M-136.16015625 99.90234375 C-135.41854195 107.59413813 -134.13236222 115.14031843 -132.76757812 122.74389648 C-132.52250864 124.12122869 -132.27768828 125.49860525 -132.03309631 126.87602234 C-131.37263266 130.59087481 -130.70848358 134.30505928 -130.04346657 138.019099 C-129.48801848 141.12331195 -128.93445997 144.22786061 -128.38091421 147.33241326 C-127.07604955 154.65070585 -125.76826002 161.96847143 -124.45849609 169.28588867 C-123.10686536 176.8374386 -121.75963703 184.38976433 -120.41463614 191.94249767 C-119.25850696 198.43393576 -118.09996242 204.92493939 -116.93939829 211.41558605 C-116.24669653 215.28967282 -115.55485486 219.16390795 -114.86521912 223.03854179 C-114.21795159 226.67438907 -113.56766381 230.30968319 -112.91500664 233.94456673 C-112.56125925 235.91897201 -112.21059175 237.89392831 -111.86000061 239.86889648 C-111.64971725 241.03662094 -111.4394339 242.2043454 -111.22277832 243.40745544 C-111.04064034 244.42633063 -110.85850235 245.44520582 -110.67084503 246.49495602 C-110.26624858 248.90005104 -110.26624858 248.90005104 -109.16015625 250.90234375 C-96.95015625 250.90234375 -84.74015625 250.90234375 -72.16015625 250.90234375 C-73.57224495 231.36168626 -74.98812469 211.82131572 -76.41100979 192.28144169 C-77.07151031 183.20937288 -77.73027756 174.13718435 -78.38500977 165.06469727 C-78.95547038 157.16000452 -79.52913692 149.25555223 -80.10670525 141.35137552 C-80.41259952 137.16357167 -80.71685269 132.97566276 -81.01727104 128.78746223 C-81.29976192 124.84990113 -81.58652009 120.91267462 -81.87663269 116.97566795 C-81.98264769 115.5265165 -82.08706883 114.07724747 -82.18982124 112.62786102 C-82.32975316 110.65732871 -82.47584206 108.68723643 -82.62229919 106.71717834 C-82.70249518 105.61194856 -82.78269117 104.50671877 -82.86531734 103.36799717 C-82.89549161 100.96095895 -82.89549161 100.96095895 -84.16015625 99.90234375 C-85.78690403 99.80893941 -87.41769676 99.78489204 -89.04711914 99.78881836 C-90.6086245 99.78893166 -90.6086245 99.78893166 -92.20167542 99.78904724 C-93.90008827 99.79678917 -93.90008827 99.79678917 -95.6328125 99.8046875 C-96.78559189 99.80610245 -97.93837128 99.8075174 -99.12608337 99.80897522 C-102.82496689 99.8145937 -106.52379089 99.82714933 -110.22265625 99.83984375 C-112.72330642 99.84485637 -115.22395754 99.84941969 -117.72460938 99.85351562 C-123.86981213 99.86456913 -130.01497994 99.88132523 -136.16015625 99.90234375 Z M-66.16015625 99.90234375 C-66.16015625 109.29312203 -65.97393387 118.41682577 -65.25805664 127.74487305 C-65.16212723 129.049077 -65.06619781 130.35328094 -64.96736145 131.69700623 C-64.70760586 135.22555925 -64.44144813 138.75360076 -64.17379689 142.28156257 C-63.89335984 145.99009985 -63.61827769 149.69903509 -63.34239197 153.40791321 C-62.87943834 159.62044476 -62.41232421 165.83265261 -61.94262695 172.04467773 C-61.3998019 179.22449815 -60.86348055 186.40478226 -60.33059698 193.58534688 C-59.8162756 200.51398969 -59.29759772 207.44229958 -58.77685356 214.37046242 C-58.55578743 217.31247708 -58.33621738 220.25459774 -58.11784554 223.19681358 C-57.81360468 227.29260767 -57.50297687 231.38789271 -57.19165039 235.4831543 C-57.05678223 237.31348206 -57.05678223 237.31348206 -56.91918945 239.18078613 C-56.83367325 240.29217453 -56.74815704 241.40356293 -56.66004944 242.54862976 C-56.58722779 243.515843 -56.51440615 244.48305624 -56.43937778 245.47957897 C-56.22835018 248.04031589 -56.22835018 248.04031589 -55.16015625 250.90234375 C-35.36015625 250.90234375 -15.56015625 250.90234375 4.83984375 250.90234375 C6.53533523 234.86711566 6.53533523 234.86711566 7.89306641 218.8125 C7.98114059 217.64721268 8.06921478 216.48192535 8.15995789 215.28132629 C8.44421465 211.50937927 8.72428239 207.73713683 9.00390625 203.96484375 C9.1523066 201.97957342 9.300709 199.99430323 9.44931734 198.00904846 C9.91417365 191.79838265 10.37603967 185.58749965 10.8359375 179.37646484 C11.30773607 173.00542649 11.7846831 166.63478802 12.2641083 160.26431942 C12.67899756 154.74895495 13.09069707 149.23335856 13.49988782 143.7175684 C13.74286598 140.44268734 13.9873482 137.16793195 14.23421097 133.89334106 C14.50852395 130.24818259 14.7776097 126.6026732 15.04541016 122.95703125 C15.16693199 121.36396904 15.16693199 121.36396904 15.29090881 119.73872375 C15.40016441 118.23005989 15.40016441 118.23005989 15.5116272 116.69091797 C15.57539865 115.83343964 15.63917011 114.9759613 15.70487404 114.09249878 C15.90482418 109.36646102 15.83984375 104.63260938 15.83984375 99.90234375 C-11.22015625 99.90234375 -38.28015625 99.90234375 -66.16015625 99.90234375 Z M32.83984375 99.90234375 C31.40404613 118.99956295 29.96948075 138.0968734 28.53717804 157.19435501 C27.87211105 166.06143434 27.20648579 174.92847111 26.53955078 183.79541016 C25.95832153 191.52290517 25.37813514 199.25047765 24.79920626 206.97814536 C24.49257042 211.07069595 24.18540888 215.16320556 23.8769989 219.25562286 C23.58679923 223.10661986 23.29799287 226.9577188 23.01025963 230.80890083 C22.90435388 232.22308525 22.79793702 233.6372315 22.69097328 235.05133629 C22.54508896 236.98099978 22.40121562 238.91081499 22.25744629 240.84063721 C22.17632851 241.92097858 22.09521072 243.00131996 22.01163483 244.11439896 C21.87243151 246.37348699 21.83984375 248.63897098 21.83984375 250.90234375 C34.04984375 250.90234375 46.25984375 250.90234375 58.83984375 250.90234375 C62.50645207 232.85865174 65.90698365 214.78586773 69.140625 196.66015625 C69.62634635 193.94531602 70.11267853 191.23058525 70.59892273 188.51583862 C71.60660144 182.88751345 72.61216554 177.25881365 73.61645508 171.62988281 C74.77618121 165.12994044 75.9397073 158.63068632 77.10508472 152.13175499 C78.11345743 146.50781247 79.1198124 140.88351164 80.12447041 135.25890434 C80.72135507 131.91724215 81.31893482 128.57570842 81.91835976 125.23450089 C82.58130197 121.53584568 83.24093253 117.83661518 83.8996582 114.13720703 C84.09751923 113.03712814 84.29538025 111.93704926 84.49923706 110.80363464 C84.67712265 109.8006987 84.85500824 108.79776276 85.0382843 107.76443481 C85.19402577 106.89262636 85.34976725 106.02081791 85.51022816 105.12259102 C85.9132685 102.78186118 85.9132685 102.78186118 85.83984375 99.90234375 C68.34984375 99.90234375 50.85984375 99.90234375 32.83984375 99.90234375 Z M102.83984375 99.90234375 C101.69806154 106.13155043 100.55900788 112.36125152 99.421875 118.59130859 C99.03448716 120.71186704 98.64646836 122.83231031 98.2578125 124.95263672 C97.70017322 127.9954694 97.14478375 131.03870528 96.58984375 134.08203125 C96.3273584 135.51021683 96.3273584 135.51021683 96.05957031 136.96725464 C95.8994043 137.84801666 95.73923828 138.72877869 95.57421875 139.63623047 C95.43209961 140.41344452 95.28998047 141.19065857 95.14355469 141.99142456 C94.78752229 143.90906122 94.78752229 143.90906122 94.83984375 145.90234375 C108.66466189 145.18726695 120.4867981 139.05376993 131.87109375 131.56640625 C138.08824435 127.85192221 144.80071478 128.00861164 151.83984375 128.90234375 C159.32719965 131.08030116 164.00909917 135.19184363 167.83984375 141.90234375 C171.21878492 148.66022609 170.9216134 156.88780819 168.65673828 163.97216797 C166.99252681 168.6956784 165.10516855 173.32836328 163.21484375 177.96484375 C162.53207804 179.67966474 161.85103351 181.39517193 161.17163086 183.11132812 C159.77199758 186.63746586 158.36056854 190.15853966 156.93994141 193.67626953 C154.92509647 198.67346962 152.96205895 203.68980021 151.0078125 208.7109375 C150.09771098 211.03557515 149.18594334 213.35954794 148.27301025 215.68307495 C147.70372513 217.13414343 147.13653833 218.58603733 146.57171631 220.03884888 C143.63666549 227.56611925 140.49065171 234.88474967 136.7109375 242.03125 C136.23328697 242.9374408 136.23328697 242.9374408 135.74598694 243.86193848 C132.49965772 249.83038655 128.40508505 254.90231756 123.83984375 259.90234375 C123.18113281 260.63066406 122.52242188 261.35898437 121.84375 262.109375 C117.0372438 267.1673282 111.66295165 271.08391234 105.83984375 274.90234375 C111.42432091 282.75332431 111.42432091 282.75332431 117.83984375 289.90234375 C118.49984375 289.90234375 119.15984375 289.90234375 119.83984375 289.90234375 C121.45481324 287.91855264 121.45481324 287.91855264 123.11328125 285.3203125 C123.7671582 284.33522705 124.42103516 283.3501416 125.09472656 282.33520508 C125.79436523 281.26423584 126.49400391 280.1932666 127.21484375 279.08984375 C127.93510742 277.99631592 128.65537109 276.90278809 129.39746094 275.77612305 C131.55684794 272.49254967 133.6997272 269.19850994 135.83984375 265.90234375 C136.41186523 265.02352539 136.98388672 264.14470703 137.57324219 263.23925781 C144.91411407 251.91998924 151.76426946 240.35288144 158.34423828 228.57617188 C159.33261478 226.80916251 160.3257014 225.04477861 161.32373047 223.28320312 C180.07138079 191.97461055 180.07138079 191.97461055 190.21484375 157.58984375 C190.33098022 156.49700073 190.33098022 156.49700073 190.44946289 155.38208008 C191.90784794 139.03922043 186.11032391 125.38068145 175.83984375 112.90234375 C170.52812634 106.6442179 164.04107966 101.57217598 155.83984375 99.90234375 C154.06838755 99.81689778 152.29401853 99.78459571 150.52050781 99.78881836 C148.92931122 99.78893166 148.92931122 99.78893166 147.30596924 99.78904724 C146.16730408 99.79420853 145.02863892 99.79936981 143.85546875 99.8046875 C142.68473816 99.80610245 141.51400757 99.8075174 140.30780029 99.80897522 C136.56845546 99.81457285 132.82917049 99.82712495 129.08984375 99.83984375 C126.55468836 99.84485905 124.01953204 99.84942191 121.484375 99.85351562 C115.26951082 99.86454151 109.05468156 99.88127731 102.83984375 99.90234375 Z M-98.16015625 266.90234375 C-98.16015625 275.48234375 -98.16015625 284.06234375 -98.16015625 292.90234375 C-50.31015625 292.90234375 -2.46015625 292.90234375 46.83984375 292.90234375 C46.83984375 284.32234375 46.83984375 275.74234375 46.83984375 266.90234375 C-1.01015625 266.90234375 -48.86015625 266.90234375 -98.16015625 266.90234375 Z M-109.16015625 310.90234375 C-109.55071965 312.96478429 -109.88240434 315.03838694 -110.19154358 317.11459351 C-110.29040326 317.77078316 -110.38926294 318.42697282 -110.49111837 319.10304701 C-110.82365699 321.31730899 -111.15020144 323.53241423 -111.47680664 325.74755859 C-111.71305279 327.32907782 -111.94965888 328.91054332 -112.18659973 330.49195862 C-112.83084274 334.799251 -113.46985516 339.10730492 -114.10784841 343.41552687 C-114.7751138 347.91622624 -115.44673138 352.41627619 -116.11778259 356.91641235 C-117.24453579 364.47705676 -118.36804319 372.03817794 -119.48950195 379.59960938 C-120.78709978 388.34847984 -122.08912351 397.0966824 -123.39368445 405.84451711 C-124.64681679 414.2478126 -125.89745325 422.65147744 -127.14672661 431.05534744 C-127.6791212 434.63672844 -128.21227829 438.2179947 -128.74601936 441.79917526 C-129.37434078 446.01604066 -130.00044281 450.23322979 -130.62481499 454.45068169 C-130.85465207 456.00081534 -131.08523385 457.55083877 -131.31660461 459.10074425 C-131.63167829 461.21224428 -131.94406717 463.32412427 -132.25575256 465.43612671 C-132.431438 466.61933187 -132.60712343 467.80253704 -132.78813267 469.02159691 C-133.22419514 471.91411426 -133.22419514 471.91411426 -133.16015625 474.90234375 C-116.00015625 474.90234375 -98.84015625 474.90234375 -81.16015625 474.90234375 C-79.85500851 453.97971466 -78.55088458 433.05702258 -77.24864197 412.13421249 C-76.64397272 402.41967385 -76.03883914 392.70516454 -75.43261719 382.99072266 C-74.90431385 374.5248738 -74.37687691 366.05897149 -73.8504858 357.59300351 C-73.5716664 353.10923148 -73.29240948 348.62548766 -73.01211548 344.14180756 C-72.7483981 339.92307335 -72.48583777 335.70426873 -72.22417068 331.48540688 C-72.12785211 329.93577982 -72.03110821 328.38617913 -71.93391037 326.83660698 C-71.80139585 324.72298864 -71.67040396 322.60928125 -71.53979492 320.49554443 C-71.42917976 318.72017115 -71.42917976 318.72017115 -71.31632996 316.90893173 C-71.19514685 314.57596754 -71.16015625 312.23845318 -71.16015625 309.90234375 C-76.41121067 309.87769447 -81.6622317 309.85950807 -86.91333008 309.84741211 C-88.70109646 309.84237157 -90.4888587 309.83553921 -92.27661133 309.8269043 C-94.84066793 309.81482645 -97.40467022 309.80911281 -99.96875 309.8046875 C-100.77291855 309.79952621 -101.5770871 309.79436493 -102.40562439 309.78904724 C-106.08319416 309.43493364 -106.08319416 309.43493364 -109.16015625 310.90234375 Z M-54.16015625 309.90234375 C-54.92670833 313.73510417 -55.38386287 317.12928794 -55.62208557 320.99682617 C-55.69918762 322.22179306 -55.77628967 323.44675995 -55.85572815 324.70884705 C-55.93717353 326.05849796 -56.01854621 327.40815326 -56.09985352 328.7578125 C-56.18838509 330.1857324 -56.27720892 331.61363421 -56.36630249 333.04151917 C-56.6070971 336.91574375 -56.84350558 340.79022439 -57.07891202 344.66477966 C-57.27633035 347.9072486 -57.47593148 351.14958163 -57.67554134 354.39191628 C-58.14706183 362.05129183 -58.61507887 369.71087589 -59.08081055 377.37060547 C-59.55974046 385.24656762 -60.04402073 393.12218734 -60.5310722 400.9976511 C-60.95014026 407.77649027 -61.36608564 414.55551609 -61.77952999 421.33470058 C-62.02598452 425.37553297 -62.27351852 429.41629113 -62.52395821 433.45687866 C-62.75984225 437.26517267 -62.99177654 441.07368826 -63.22083664 444.88239861 C-63.30492901 446.27027576 -63.39033131 447.65807436 -63.47723579 449.04577827 C-63.59694648 450.96095407 -63.71115346 452.87647138 -63.82521057 454.79199219 C-63.89028085 455.85754333 -63.95535112 456.92309448 -64.02239323 458.02093506 C-64.2219984 463.64471748 -64.16015625 469.27502015 -64.16015625 474.90234375 C-38.42015625 474.90234375 -12.68015625 474.90234375 13.83984375 474.90234375 C13.08519512 454.46523456 13.08519512 454.46523456 12.0078125 434.05224609 C11.9312442 432.783582 11.8546759 431.51491791 11.77578735 430.20780945 C11.5718355 426.83065423 11.36436415 423.45372511 11.15594864 420.07684278 C10.93570412 416.50004066 10.7184669 412.92305548 10.50073242 409.34609985 C10.13634801 403.36764931 9.76959716 397.38934765 9.40136719 391.41113281 C8.97711841 384.52293074 8.55685873 377.63449361 8.13861752 370.74592435 C7.73250233 364.05873968 7.3235066 357.37173408 6.91323853 350.68480301 C6.74006209 347.86131046 6.56789593 345.03775908 6.39657593 342.21415329 C6.15795347 338.28369898 5.91512216 334.35351077 5.671875 330.42333984 C5.60223541 329.26800247 5.53259583 328.1126651 5.46084595 326.9223175 C5.39360321 325.84664017 5.32636047 324.77096283 5.25708008 323.66268921 C5.20030594 322.73779379 5.1435318 321.81289837 5.08503723 320.85997581 C4.78132723 317.1964916 4.29580185 313.55000856 3.83984375 309.90234375 C-15.30015625 309.90234375 -34.44015625 309.90234375 -54.16015625 309.90234375 Z M20.83984375 309.90234375 C21.53145023 327.05802664 22.46910866 344.18806078 23.52373886 361.3248682 C23.7434227 364.90031831 23.96102152 368.4758955 24.17895508 372.05145264 C24.54399192 378.03520301 24.91064754 384.01885246 25.27832031 390.00244141 C25.70145026 396.88888382 26.12194498 403.77548341 26.54106998 410.66217065 C26.94801349 417.34768589 27.35681535 424.03308628 27.76644897 430.71843719 C27.93927136 433.5394712 28.11145929 436.36054282 28.28311157 439.18164825 C28.5227782 443.11893768 28.76516713 447.05605704 29.0078125 450.99316406 C29.07745209 452.14242874 29.14709167 453.29169342 29.21884155 454.4757843 C29.28608429 455.55992111 29.35332703 456.64405792 29.42260742 457.76104736 C29.47938156 458.68707386 29.5361557 459.61310036 29.59465027 460.56718826 C29.94632062 465.3506568 30.40560008 470.12566334 30.83984375 474.90234375 C47.99984375 474.90234375 65.15984375 474.90234375 82.83984375 474.90234375 C76.61225321 432.06166924 70.38260416 389.22137112 63.94781876 346.41123581 C63.58954311 344.02534168 63.23230407 341.63929438 62.87533569 339.25320435 C62.31842515 335.53190578 61.75873308 331.81103675 61.19666862 328.09051323 C60.89553757 326.09363611 60.59684838 324.09639123 60.29823303 322.09913635 C60.11957199 320.92189499 59.94091095 319.74465363 59.75683594 318.53173828 C59.52586212 316.99913864 59.52586212 316.99913864 59.29022217 315.43557739 C58.88319476 312.79025505 58.88319476 312.79025505 57.83984375 309.90234375 C45.62984375 309.90234375 33.41984375 309.90234375 20.83984375 309.90234375 Z " fill="#000000" transform="translate(254.16015625,13.09765625)"/>
</svg>
