<?xml version="1.0" encoding="UTF-8"?>
<!DOCTYPE svg PUBLIC "-//W3C//DTD SVG 1.1//EN" "http://www.w3.org/Graphics/SVG/1.1/DTD/svg11.dtd">
<svg xmlns="http://www.w3.org/2000/svg" version="1.1" width="512px" height="512px" style="shape-rendering:geometricPrecision; text-rendering:geometricPrecision; image-rendering:optimizeQuality; fill-rule:evenodd; clip-rule:evenodd" xmlns:xlink="http://www.w3.org/1999/xlink">
<g><path style="opacity:0.947" fill="#000000" d="M 106.5,-0.5 C 205.833,-0.5 305.167,-0.5 404.5,-0.5C 441.705,8.17386 463.205,31.5072 469,69.5C 469.167,79.5 469.333,89.5 469.5,99.5C 469.633,110.568 469.133,121.568 468,132.5C 466.786,134.049 465.286,135.215 463.5,136C 454.173,136.5 444.839,136.666 435.5,136.5C 435.5,215.833 435.5,295.167 435.5,374.5C 445.605,374.051 455.605,374.551 465.5,376C 467.487,377.319 468.654,379.152 469,381.5C 469.5,390.494 469.666,399.494 469.5,408.5C 473.936,408.21 478.27,408.71 482.5,410C 491.372,441.176 484.372,468.509 461.5,492C 449.818,502.008 436.485,508.508 421.5,511.5C 310.833,511.5 200.167,511.5 89.5,511.5C 52.4036,503.233 30.9036,480.233 25,442.5C 24.3333,433.5 24.3333,424.5 25,415.5C 25.3459,413.152 26.5125,411.319 28.5,410C 32.7305,408.71 37.0638,408.21 41.5,408.5C 41.0766,398.42 41.5766,388.42 43,378.5C 44.214,376.951 45.714,375.785 47.5,375C 56.8274,374.5 66.1607,374.334 75.5,374.5C 75.5,295.167 75.5,215.833 75.5,136.5C 66.1607,136.666 56.8274,136.5 47.5,136C 45.714,135.215 44.214,134.049 43,132.5C 41.8667,121.568 41.3667,110.568 41.5,99.5C 37.0704,69.0102 45.0704,42.5102 65.5,20C 77.343,9.41183 91.0096,2.5785 106.5,-0.5 Z M 109.5,17.5 C 206.834,17.3333 304.167,17.5 401.5,18C 430.44,24.2748 446.94,42.1081 451,71.5C 451.5,87.1631 451.667,102.83 451.5,118.5C 320.833,118.5 190.167,118.5 59.5,118.5C 59.3334,102.83 59.5001,87.1631 60,71.5C 64.2456,42.094 80.7456,24.094 109.5,17.5 Z M 185.5,42.5 C 191.842,42.3338 198.175,42.5005 204.5,43C 193.277,47.2621 187.277,55.4288 186.5,67.5C 186.945,79.4222 192.611,87.5889 203.5,92C 197.167,92.6667 190.833,92.6667 184.5,92C 182.333,91.1667 180.833,89.6667 180,87.5C 179.333,74.1667 179.333,60.8333 180,47.5C 181.406,45.2563 183.239,43.5897 185.5,42.5 Z M 220.5,43.5 C 255.331,42.3357 290.331,42.1691 325.5,43C 327.939,43.7739 329.773,45.2739 331,47.5C 331.667,60.8333 331.667,74.1667 331,87.5C 330.167,89.6667 328.667,91.1667 326.5,92C 291.833,92.6667 257.167,92.6667 222.5,92C 235.511,85.4766 240.678,74.9766 238,60.5C 235.574,51.2399 229.741,45.5732 220.5,43.5 Z M 211.5,59.5 C 219.355,60.8379 221.855,65.1713 219,72.5C 212.205,77.5026 207.372,76.0026 204.5,68C 205.329,66.1839 206.163,64.3506 207,62.5C 208.652,61.6006 210.152,60.6006 211.5,59.5 Z M 93.5,136.5 C 124.835,136.333 156.168,136.5 187.5,137C 193.659,157.992 207.659,169.159 229.5,170.5C 229.334,180.172 229.5,189.839 230,199.5C 231.167,201.333 232.667,202.833 234.5,204C 248.5,204.667 262.5,204.667 276.5,204C 278.333,202.833 279.833,201.333 281,199.5C 281.5,189.839 281.666,180.172 281.5,170.5C 303.341,169.159 317.341,157.992 323.5,137C 354.832,136.5 386.165,136.333 417.5,136.5C 417.5,215.833 417.5,295.167 417.5,374.5C 380.165,374.667 342.832,374.5 305.5,374C 320.697,361.45 329.53,345.283 332,325.5C 349.893,326.324 364.56,319.99 376,306.5C 388.704,283.773 385.537,263.606 366.5,246C 356.143,239.454 344.81,236.621 332.5,237.5C 332.665,233.818 332.499,230.152 332,226.5C 330.62,223.117 328.12,221.284 324.5,221C 277.121,220.02 229.788,220.353 182.5,222C 180.951,223.214 179.785,224.714 179,226.5C 178.333,259.5 178.333,292.5 179,325.5C 181.886,345.019 190.719,361.186 205.5,374C 168.168,374.5 130.835,374.667 93.5,374.5C 93.5,295.167 93.5,215.833 93.5,136.5 Z M 206.5,137.5 C 238.997,136.336 271.664,136.169 304.5,137C 301.111,143.389 296.111,148.056 289.5,151C 278.221,152.122 266.888,152.622 255.5,152.5C 244.112,152.622 232.779,152.122 221.5,151C 215.033,148.028 210.033,143.528 206.5,137.5 Z M 247.5,170.5 C 252.833,170.5 258.167,170.5 263.5,170.5C 263.5,175.833 263.5,181.167 263.5,186.5C 258.167,186.5 252.833,186.5 247.5,186.5C 247.5,181.167 247.5,175.833 247.5,170.5 Z M 196.5,238.5 C 235.833,238.5 275.167,238.5 314.5,238.5C 314.5,245.833 314.5,253.167 314.5,260.5C 301.576,257.734 288.576,257.234 275.5,259C 265.043,261.198 254.71,263.864 244.5,267C 238.396,268.301 232.23,269.134 226,269.5C 216.106,268.545 206.273,267.212 196.5,265.5C 196.5,256.5 196.5,247.5 196.5,238.5 Z M 332.5,255.5 C 348.22,253.768 359.053,260.101 365,274.5C 366.226,297.029 355.393,307.695 332.5,306.5C 332.5,289.5 332.5,272.5 332.5,255.5 Z M 286.5,275.5 C 295.663,275.814 304.663,277.147 313.5,279.5C 314.923,295.868 314.757,312.202 313,328.5C 303.133,360.026 281.633,375.193 248.5,374C 220.238,369.072 203.072,352.572 197,324.5C 196.5,310.837 196.333,297.171 196.5,283.5C 213.383,288.034 230.383,288.534 247.5,285C 260.411,280.85 273.411,277.684 286.5,275.5 Z M 59.5,392.5 C 190.167,392.5 320.833,392.5 451.5,392.5C 451.5,397.833 451.5,403.167 451.5,408.5C 320.833,408.5 190.167,408.5 59.5,408.5C 59.5,403.167 59.5,397.833 59.5,392.5 Z M 42.5,426.5 C 184.5,426.5 326.5,426.5 468.5,426.5C 469.492,461.647 453.159,483.813 419.5,493C 310.167,493.667 200.833,493.667 91.5,493C 57.8409,483.813 41.5076,461.647 42.5,426.5 Z"/></g>
<g><path style="opacity:0.945" fill="#000000" d="M 183.5,24.5 C 233.205,24.0233 282.872,24.5233 332.5,26C 341.346,29.1967 346.846,35.3634 349,44.5C 349.956,61.2335 349.623,77.9001 348,94.5C 344.674,102.493 338.841,107.659 330.5,110C 279.442,110.986 228.442,110.653 177.5,109C 169.507,105.674 164.341,99.8405 162,91.5C 161.333,75.8333 161.333,60.1667 162,44.5C 165.277,33.6177 172.444,26.9511 183.5,24.5 Z M 185.5,42.5 C 183.239,43.5897 181.406,45.2563 180,47.5C 179.333,60.8333 179.333,74.1667 180,87.5C 180.833,89.6667 182.333,91.1667 184.5,92C 190.833,92.6667 197.167,92.6667 203.5,92C 192.611,87.5889 186.945,79.4222 186.5,67.5C 187.277,55.4288 193.277,47.2621 204.5,43C 198.175,42.5005 191.842,42.3338 185.5,42.5 Z M 220.5,43.5 C 229.741,45.5732 235.574,51.2399 238,60.5C 240.678,74.9766 235.511,85.4766 222.5,92C 257.167,92.6667 291.833,92.6667 326.5,92C 328.667,91.1667 330.167,89.6667 331,87.5C 331.667,74.1667 331.667,60.8333 331,47.5C 329.773,45.2739 327.939,43.7739 325.5,43C 290.331,42.1691 255.331,42.3357 220.5,43.5 Z M 211.5,59.5 C 210.152,60.6006 208.652,61.6006 207,62.5C 206.163,64.3506 205.329,66.1839 204.5,68C 207.372,76.0026 212.205,77.5026 219,72.5C 221.855,65.1713 219.355,60.8379 211.5,59.5 Z"/></g>
<g><path style="opacity:0.911" fill="#000000" d="M 253.5,58.5 C 261.585,58.0989 269.585,58.5989 277.5,60C 283.102,65.7636 282.769,71.0969 276.5,76C 268.167,76.6667 259.833,76.6667 251.5,76C 244.393,69.1592 245.06,63.3259 253.5,58.5 Z"/></g>
<g><path style="opacity:0.918" fill="#000000" d="M 296.5,58.5 C 303.175,58.3337 309.842,58.5004 316.5,59C 323.253,61.2478 325.419,65.7478 323,72.5C 321.833,73.6667 320.667,74.8333 319.5,76C 310.398,76.9424 301.398,76.6091 292.5,75C 287.494,67.7856 288.827,62.2856 296.5,58.5 Z"/></g>
<g><path style="opacity:0.943" fill="#000000" d="M 436.5,442.5 C 446.24,443.311 449.407,448.311 446,457.5C 438.944,467.608 429.444,474.108 417.5,477C 309.5,477.667 201.5,477.667 93.5,477C 78.6802,474.003 68.6802,465.503 63.5,451.5C 63.9768,446.024 66.9768,443.358 72.5,443.5C 74.6341,443.515 76.6341,444.015 78.5,445C 82.7572,451.926 88.7572,456.592 96.5,459C 202.5,459.667 308.5,459.667 414.5,459C 417.618,457.941 420.618,456.608 423.5,455C 427.76,450.528 432.093,446.361 436.5,442.5 Z"/></g>
</svg>
