<?xml version="1.0" encoding="UTF-8"?>
<!DOCTYPE svg PUBLIC "-//W3C//DTD SVG 1.1//EN" "http://www.w3.org/Graphics/SVG/1.1/DTD/svg11.dtd">
<svg xmlns="http://www.w3.org/2000/svg" version="1.1" width="512px" height="512px" style="shape-rendering:geometricPrecision; text-rendering:geometricPrecision; image-rendering:optimizeQuality; fill-rule:evenodd; clip-rule:evenodd" xmlns:xlink="http://www.w3.org/1999/xlink">
<g><path style="opacity:0.948" fill="#000000" d="M 219.5,7.5 C 231.315,6.45507 242.648,8.28841 253.5,13C 257.544,16.588 259.878,21.088 260.5,26.5C 258.705,40.1213 257.371,53.788 256.5,67.5C 287.526,76.5075 318.526,85.6741 349.5,95C 370.167,95.3333 390.833,95.6667 411.5,96C 425.696,99.3493 437.196,106.849 446,118.5C 461.693,140.746 465.026,164.746 456,190.5C 435.281,238.473 409.114,282.973 377.5,324C 374.463,325.85 371.463,325.85 368.5,324C 358.667,312.833 348.833,301.667 339,290.5C 336.554,285.676 337.387,281.509 341.5,278C 356.456,271.274 367.956,260.774 376,246.5C 386.61,220.946 396.943,195.28 407,169.5C 407.833,161 404,157.167 395.5,158C 380.382,168.32 363.716,174.82 345.5,177.5C 339.561,209.466 333.728,241.466 328,273.5C 326.554,278.898 323.054,280.898 317.5,279.5C 317.5,288.167 317.5,296.833 317.5,305.5C 324.19,306.025 327.69,309.692 328,316.5C 337.42,377.106 346.087,437.773 354,498.5C 353.215,500.286 352.049,501.786 350.5,503C 269.167,503.667 187.833,503.667 106.5,503C 102.633,499.34 101.466,494.84 103,489.5C 111.686,429.029 121.019,368.696 131,308.5C 133.235,306.798 135.735,305.798 138.5,305.5C 138.5,296.833 138.5,288.167 138.5,279.5C 133.867,280.542 130.701,278.875 129,274.5C 125.225,254.186 121.559,233.853 118,213.5C 115.158,204.815 111.491,196.481 107,188.5C 91.6115,164.436 73.2782,142.77 52,123.5C 49.2135,120.033 48.8802,116.366 51,112.5C 57.1556,105.836 64.6556,101.336 73.5,99C 84.6925,96.5176 96.0258,95.1843 107.5,95C 138.474,85.6741 169.474,76.5075 200.5,67.5C 199.365,53.8183 198.032,40.1516 196.5,26.5C 196.589,20.8213 198.923,16.3213 203.5,13C 208.832,10.8428 214.166,9.00945 219.5,7.5 Z M 222.5,24.5 C 229.27,24.2861 235.937,24.9528 242.5,26.5C 241.83,38.1973 240.83,49.8639 239.5,61.5C 232.167,58.8333 224.833,58.8333 217.5,61.5C 216.328,50.2775 214.995,39.1108 213.5,28C 216.511,26.6727 219.511,25.506 222.5,24.5 Z M 226.5,76.5 C 247.564,82.3538 268.564,88.5204 289.5,95C 248.833,95.6667 208.167,95.6667 167.5,95C 187.426,89.2755 207.092,83.1089 226.5,76.5 Z M 91.5,112.5 C 94.5,112.5 97.5,112.5 100.5,112.5C 102.824,128.271 105.324,143.938 108,159.5C 96.9499,144.777 84.7833,130.944 71.5,118C 78.1419,115.581 84.8086,113.748 91.5,112.5 Z M 117.5,112.5 C 135.077,112.175 152.577,112.508 170,113.5C 173.504,163.22 177.337,212.886 181.5,262.5C 175.333,262.833 169.167,263.167 163,263.5C 156.426,263.478 150.093,262.811 144,261.5C 135.1,211.833 126.266,162.166 117.5,112.5 Z M 187.5,112.5 C 214.833,112.5 242.167,112.5 269.5,112.5C 266.088,162.854 262.421,213.187 258.5,263.5C 238.5,263.5 218.5,263.5 198.5,263.5C 194.313,213.216 190.646,162.883 187.5,112.5 Z M 286.5,112.5 C 304.167,112.5 321.833,112.5 339.5,112.5C 330.392,162.814 321.392,213.147 312.5,263.5C 300.167,263.5 287.833,263.5 275.5,263.5C 279.523,213.199 283.19,162.866 286.5,112.5 Z M 356.5,112.5 C 374.17,112.333 391.836,112.5 409.5,113C 426.193,119.364 437.026,131.197 442,148.5C 445.15,160.66 444.483,172.66 440,184.5C 421.363,226.24 398.863,265.573 372.5,302.5C 368.01,297.841 363.677,293.008 359.5,288C 376.244,277.349 388.41,262.849 396,244.5C 405.333,220.5 414.667,196.5 424,172.5C 424.833,147.67 413,137.503 388.5,142C 377.292,150.352 364.792,155.852 351,158.5C 350.167,158.167 349.333,157.833 348.5,157.5C 351.681,142.594 354.348,127.594 356.5,112.5 Z M 155.5,279.5 C 203.833,279.5 252.167,279.5 300.5,279.5C 300.5,288.167 300.5,296.833 300.5,305.5C 252.167,305.5 203.833,305.5 155.5,305.5C 155.5,296.833 155.5,288.167 155.5,279.5 Z M 145.5,322.5 C 157.833,322.5 170.167,322.5 182.5,322.5C 178.776,377.468 175.443,432.468 172.5,487.5C 155.167,487.5 137.833,487.5 120.5,487.5C 128.745,432.452 137.078,377.452 145.5,322.5 Z M 199.5,322.5 C 218.833,322.5 238.167,322.5 257.5,322.5C 260.911,377.494 264.245,432.494 267.5,487.5C 241.5,487.5 215.5,487.5 189.5,487.5C 192.521,432.476 195.854,377.476 199.5,322.5 Z M 274.5,322.5 C 286.833,322.5 299.167,322.5 311.5,322.5C 319.698,377.387 328.031,432.22 336.5,487C 319.17,487.5 301.837,487.667 284.5,487.5C 281.323,432.489 277.99,377.489 274.5,322.5 Z"/></g>
</svg>
