<?xml version="1.0" encoding="UTF-8"?>
<!DOCTYPE svg PUBLIC "-//W3C//DTD SVG 1.1//EN" "http://www.w3.org/Graphics/SVG/1.1/DTD/svg11.dtd">
<svg xmlns="http://www.w3.org/2000/svg" version="1.1" width="512px" height="512px" style="shape-rendering:geometricPrecision; text-rendering:geometricPrecision; image-rendering:optimizeQuality; fill-rule:evenodd; clip-rule:evenodd" xmlns:xlink="http://www.w3.org/1999/xlink">
<g><path style="opacity:0.911" fill="#000000" d="M 185.5,94.5 C 187.655,94.372 189.655,94.872 191.5,96C 192.856,98.3976 194.023,100.898 195,103.5C 237.147,97.2432 269.814,111.91 293,147.5C 300.259,159.541 303.925,172.541 304,186.5C 303.25,187.126 302.416,187.626 301.5,188C 296.853,188.085 292.186,187.919 287.5,187.5C 283.431,187.504 279.431,188.004 275.5,189C 267.028,192.402 259.028,196.568 251.5,201.5C 241.247,199.241 230.914,198.908 220.5,200.5C 231.538,245.319 243.205,289.986 255.5,334.5C 306.497,335.333 357.497,335.833 408.5,336C 421.786,340.391 426.953,349.557 424,363.5C 421.406,370.428 416.573,374.928 409.5,377C 401.147,377.168 392.813,377.668 384.5,378.5C 388.667,388.167 392.833,397.833 397,407.5C 398.526,413.297 396.359,416.13 390.5,416C 389.069,415.535 387.903,414.701 387,413.5C 382.024,401.567 376.857,389.733 371.5,378C 307.831,377.167 244.164,377.333 180.5,378.5C 175.667,390.167 170.833,401.833 166,413.5C 162.667,417.5 159.333,417.5 156,413.5C 155.333,411.5 155.333,409.5 156,407.5C 160.171,397.65 164.338,387.816 168.5,378C 162.5,377.667 156.5,377.333 150.5,377C 145.761,375.881 141.928,373.381 139,369.5C 121.24,342.079 103.906,314.412 87,286.5C 84.9865,267.514 93.4865,258.681 112.5,260C 117.741,261.239 121.908,264.072 125,268.5C 139.042,290.751 153.209,312.918 167.5,335C 192.84,335.833 218.173,335.666 243.5,334.5C 231.852,291.239 220.518,247.906 209.5,204.5C 199.833,207.501 191.167,212.334 183.5,219C 173.451,219.135 163.451,219.802 153.5,221C 145.863,223.835 138.863,227.668 132.5,232.5C 130.813,232.24 129.313,231.573 128,230.5C 113.048,188.476 121.881,152.309 154.5,122C 163.564,115.435 173.231,109.935 183.5,105.5C 181.658,101.144 182.324,97.4769 185.5,94.5 Z M 216.5,113.5 C 249.928,116.046 273.761,132.712 288,163.5C 289.308,167.76 290.808,171.926 292.5,176C 279.47,175.215 267.303,178.381 256,185.5C 250.017,162.535 240.017,141.535 226,122.5C 222.964,119.296 219.797,116.296 216.5,113.5 Z M 197.5,115.5 C 201.423,116.795 205.09,118.628 208.5,121C 219.35,131.854 227.85,144.354 234,158.5C 237.903,168.209 241.403,178.043 244.5,188C 235.155,188.389 225.821,188.889 216.5,189.5C 210.48,164.755 204.147,140.088 197.5,115.5 Z M 185.5,119.5 C 186.966,120.347 187.8,121.68 188,123.5C 193.784,146.803 199.95,169.97 206.5,193C 198.276,195.779 190.609,199.612 183.5,204.5C 175.434,179.38 174.6,154.047 181,128.5C 182.513,125.473 184.013,122.473 185.5,119.5 Z M 168.5,125.5 C 169.097,125.735 169.43,126.235 169.5,127C 167.565,132.675 166.398,138.508 166,144.5C 164.424,165.814 166.257,186.814 171.5,207.5C 158.363,207.535 146.03,210.535 134.5,216.5C 126.873,179.046 138.206,148.713 168.5,125.5 Z M 104.5,270.5 C 108.676,270.168 112.176,271.502 115,274.5C 130.106,298.603 145.606,322.436 161.5,346C 242.833,346.333 324.167,346.667 405.5,347C 413.227,349.954 415.227,355.121 411.5,362.5C 409.972,363.861 408.305,365.028 406.5,366C 322.167,366.667 237.833,366.667 153.5,366C 151.413,365.208 149.579,364.041 148,362.5C 131.083,336.336 114.417,310.002 98,283.5C 96.881,277.469 99.0477,273.136 104.5,270.5 Z"/></g>
</svg>
