<?xml version="1.0" encoding="UTF-8"?>
<!DOCTYPE svg PUBLIC "-//W3C//DTD SVG 1.1//EN" "http://www.w3.org/Graphics/SVG/1.1/DTD/svg11.dtd">
<svg xmlns="http://www.w3.org/2000/svg" version="1.1" width="512px" height="512px" style="shape-rendering:geometricPrecision; text-rendering:geometricPrecision; image-rendering:optimizeQuality; fill-rule:evenodd; clip-rule:evenodd" xmlns:xlink="http://www.w3.org/1999/xlink">
<g><path style="opacity:0.945" fill="#000000" d="M 243.5,15.5 C 273.127,12.3221 297.127,22.3221 315.5,45.5C 338.647,30.1223 363.313,27.2889 389.5,37C 419.506,52.1619 433.673,76.6619 432,110.5C 426.242,148.425 404.409,170.091 366.5,175.5C 359.067,213.166 351.567,250.833 344,288.5C 343.439,289.022 342.772,289.355 342,289.5C 337.196,288.306 332.363,287.306 327.5,286.5C 328.576,278.788 329.909,271.121 331.5,263.5C 280.833,263.5 230.167,263.5 179.5,263.5C 180.766,270.333 182.1,277.166 183.5,284C 183.167,284.833 182.833,285.667 182.5,286.5C 177.338,288.226 172.171,288.893 167,288.5C 159.433,250.833 151.933,213.166 144.5,175.5C 115.94,171.772 95.773,156.772 84,130.5C 72.4197,94.2402 81.9197,64.7402 112.5,42C 133.592,30.3697 155.592,28.3697 178.5,36C 184.49,38.6597 190.156,41.8264 195.5,45.5C 204.255,34.1193 215.255,25.6193 228.5,20C 233.577,18.32 238.577,16.82 243.5,15.5 Z M 245.5,32.5 C 265.782,29.9042 282.949,35.9042 297,50.5C 300.71,56.0873 304.543,61.5873 308.5,67C 311.55,68.7136 314.55,68.7136 317.5,67C 337.806,46.9338 360.806,42.9338 386.5,55C 412.86,72.5694 420.694,96.4027 410,126.5C 398.323,147.935 380.156,159.101 355.5,160C 353.667,160.5 352.5,161.667 352,163.5C 346.079,191.107 340.412,218.773 335,246.5C 325.25,247.486 315.416,247.819 305.5,247.5C 307.854,231.863 309.687,216.196 311,200.5C 306,199.5 301,198.5 296,197.5C 292.625,213.955 290.125,230.622 288.5,247.5C 280.167,247.5 271.833,247.5 263.5,247.5C 263.5,218.167 263.5,188.833 263.5,159.5C 258.167,159.5 252.833,159.5 247.5,159.5C 247.5,188.833 247.5,218.167 247.5,247.5C 239.167,247.5 230.833,247.5 222.5,247.5C 220.875,230.622 218.375,213.955 215,197.5C 210,198.5 205,199.5 200,200.5C 201.313,216.196 203.146,231.863 205.5,247.5C 195.584,247.819 185.75,247.486 176,246.5C 170.634,218.001 164.634,189.668 158,161.5C 148.083,159.55 138.25,157.05 128.5,154C 99.3405,137.153 90.1739,112.653 101,80.5C 113.971,56.0986 134.137,45.5986 161.5,49C 174.102,51.6105 184.768,57.6105 193.5,67C 197.843,68.791 201.676,67.9577 205,64.5C 213.684,47.6407 227.184,36.9741 245.5,32.5 Z"/></g>
<g><path style="opacity:0.924" fill="#000000" d="M 92.5,16.5 C 94.0174,16.5106 95.1841,17.1772 96,18.5C 98.5,22.3333 101,26.1667 103.5,30C 68.7812,56.4861 56.9479,90.9861 68,133.5C 62.9968,135.668 57.8302,137.334 52.5,138.5C 38.8049,88.9191 52.1383,48.2524 92.5,16.5 Z"/></g>
<g><path style="opacity:0.873" fill="#000000" d="M 73.5,147.5 C 78.4423,151.127 82.4423,155.794 85.5,161.5C 82.1256,165.876 78.1256,169.542 73.5,172.5C 68.4057,167.818 64.4057,162.318 61.5,156C 61.6448,155.228 61.9781,154.561 62.5,154C 66.2299,151.807 69.8965,149.64 73.5,147.5 Z"/></g>
<g><path style="opacity:0.929" fill="#000000" d="M 65.5,207.5 C 103.257,204.621 131.09,219.621 149,252.5C 153.609,264.726 155.775,277.393 155.5,290.5C 188.833,311.833 222.167,333.167 255.5,354.5C 288.833,333.167 322.167,311.833 355.5,290.5C 355.784,245.709 377.784,218.209 421.5,208C 447.15,204.211 468.316,212.045 485,231.5C 496.669,250.801 498.669,271.134 491,292.5C 471.539,331.647 440.372,346.814 397.5,338C 393.15,336.551 388.984,334.718 385,332.5C 359.167,351 333.333,369.5 307.5,388C 335.208,405.047 362.374,422.88 389,441.5C 398.589,454.915 398.922,468.582 390,482.5C 377.718,495.375 363.551,497.875 347.5,490C 316.972,467.973 286.306,446.139 255.5,424.5C 225.833,445.667 196.167,466.833 166.5,488C 146.707,498.957 130.541,495.124 118,476.5C 112.347,462.064 114.847,449.231 125.5,438C 151.5,421.333 177.5,404.667 203.5,388C 177.667,369.5 151.833,351 126,332.5C 89.3068,348.494 57.6402,341.494 31,311.5C 12.4236,287.238 10.0903,261.572 24,234.5C 34.1861,219.828 48.0194,210.828 65.5,207.5 Z M 431.5,223.5 C 468.495,227.179 483.328,247.179 476,283.5C 461.993,314.587 438.159,327.42 404.5,322C 398.44,320.136 392.774,317.47 387.5,314C 384.743,313.416 382.077,313.75 379.5,315C 350.342,336.079 321.009,356.912 291.5,377.5C 284.966,373.135 278.3,368.969 271.5,365C 304.833,343.667 338.167,322.333 371.5,301C 373.049,298.902 374.049,296.568 374.5,294C 370.524,259.303 385.191,236.636 418.5,226C 422.988,225.24 427.322,224.406 431.5,223.5 Z M 66.5,224.5 C 97.5457,221.6 120.046,233.933 134,261.5C 137.572,272.098 138.406,282.931 136.5,294C 136.73,296.7 137.73,299.033 139.5,301C 218.758,351.21 297.592,402.043 376,453.5C 380.615,460.908 379.782,467.741 373.5,474C 368.002,478.039 362.335,478.372 356.5,475C 280.777,420.945 204.777,367.278 128.5,314C 126.833,313.333 125.167,313.333 123.5,314C 94.7141,330.509 68.8808,326.675 46,302.5C 33.669,288.177 29.669,271.843 34,253.5C 40.0142,238.313 50.8476,228.647 66.5,224.5 Z M 218.5,398.5 C 225.954,403.447 233.287,408.614 240.5,414C 211.833,434.333 183.167,454.667 154.5,475C 142.151,479.319 134.484,474.986 131.5,462C 132.163,456.996 134.496,452.996 138.5,450C 165.401,433.058 192.068,415.892 218.5,398.5 Z"/></g>
<g><path style="opacity:0.925" fill="#000000" d="M 481.5,330.5 C 485.997,334.164 489.997,338.331 493.5,343C 463.313,370.422 428.48,378.922 389,368.5C 378.558,376.784 367.725,384.451 356.5,391.5C 352.463,387.785 349.13,383.452 346.5,378.5C 358.443,369.188 370.776,360.355 383.5,352C 386.5,351.333 389.5,351.333 392.5,352C 426.301,361.299 455.967,354.132 481.5,330.5 Z"/></g>
</svg>
