<?xml version="1.0" encoding="UTF-8"?>
<!DOCTYPE svg PUBLIC "-//W3C//DTD SVG 1.1//EN" "http://www.w3.org/Graphics/SVG/1.1/DTD/svg11.dtd">
<svg xmlns="http://www.w3.org/2000/svg" version="1.1" width="512px" height="512px" style="shape-rendering:geometricPrecision; text-rendering:geometricPrecision; image-rendering:optimizeQuality; fill-rule:evenodd; clip-rule:evenodd" xmlns:xlink="http://www.w3.org/1999/xlink">
<g><path style="opacity:0.95" fill="#000000" d="M 222.5,135.5 C 255.168,135.333 287.835,135.5 320.5,136C 336.667,140.167 346.833,150.333 351,166.5C 350.158,177.989 353.991,187.489 362.5,195C 366.521,197.34 370.854,198.674 375.5,199C 415.277,195.144 446.11,209.644 468,242.5C 477.557,258.374 480.89,275.374 478,293.5C 473.667,296.167 469.333,296.167 465,293.5C 464.224,266.784 453.391,245.284 432.5,229C 420.449,220.872 407.116,216.539 392.5,216C 383.833,215.667 375.167,215.333 366.5,215C 344.56,208.007 333.726,192.84 334,169.5C 331.167,161.333 325.667,155.833 317.5,153C 302.204,151.883 286.871,151.383 271.5,151.5C 255.8,151.392 240.133,151.892 224.5,153C 211.888,158.387 206.721,167.887 209,181.5C 212.678,192.171 220.178,198.004 231.5,199C 256.229,199.028 280.896,199.695 305.5,201C 309.579,203.075 313.079,205.908 316,209.5C 318.456,215.69 320.456,222.024 322,228.5C 323.648,229.717 325.481,230.55 327.5,231C 352.5,231.333 377.5,231.667 402.5,232C 432.976,240.142 447.809,259.975 447,291.5C 445.471,294.516 442.971,295.849 439.5,295.5C 437.074,295.596 434.907,294.93 433,293.5C 431.181,287.627 429.847,281.627 429,275.5C 424.984,264.15 417.484,255.983 406.5,251C 401.65,249.268 396.65,248.268 391.5,248C 367.833,247.667 344.167,247.333 320.5,247C 314.914,245.419 310.414,242.252 307,237.5C 304.544,231.31 302.544,224.976 301,218.5C 299.352,217.283 297.519,216.45 295.5,216C 271.167,215.667 246.833,215.333 222.5,215C 206.333,210.833 196.167,200.667 192,184.5C 189.024,159.753 199.191,143.42 222.5,135.5 Z"/></g>
<g><path style="opacity:0.999" fill="#000000" d="M 35.5,311.5 C 182.167,311.333 328.834,311.5 475.5,312C 477.333,312.5 478.5,313.667 479,315.5C 479.667,334.167 479.667,352.833 479,371.5C 478.5,373.333 477.333,374.5 475.5,375C 328.833,375.667 182.167,375.667 35.5,375C 33.6667,374.5 32.5,373.333 32,371.5C 31.3333,352.833 31.3333,334.167 32,315.5C 32.6897,313.65 33.8564,312.316 35.5,311.5 Z M 47.5,327.5 C 84.8333,327.5 122.167,327.5 159.5,327.5C 159.5,338.167 159.5,348.833 159.5,359.5C 122.167,359.5 84.8333,359.5 47.5,359.5C 47.5,348.833 47.5,338.167 47.5,327.5 Z M 175.5,327.5 C 260.833,327.5 346.167,327.5 431.5,327.5C 431.5,338.167 431.5,348.833 431.5,359.5C 346.167,359.5 260.833,359.5 175.5,359.5C 175.5,348.833 175.5,338.167 175.5,327.5 Z M 447.5,327.5 C 452.833,327.5 458.167,327.5 463.5,327.5C 463.5,338.167 463.5,348.833 463.5,359.5C 458.167,359.5 452.833,359.5 447.5,359.5C 447.5,348.833 447.5,338.167 447.5,327.5 Z"/></g>
</svg>
