<?xml version="1.0" encoding="UTF-8"?>
<!DOCTYPE svg PUBLIC "-//W3C//DTD SVG 1.1//EN" "http://www.w3.org/Graphics/SVG/1.1/DTD/svg11.dtd">
<svg xmlns="http://www.w3.org/2000/svg" version="1.1" width="512px" height="512px" style="shape-rendering:geometricPrecision; text-rendering:geometricPrecision; image-rendering:optimizeQuality; fill-rule:evenodd; clip-rule:evenodd" xmlns:xlink="http://www.w3.org/1999/xlink">
<g><path style="opacity:0.946" fill="#000000" d="M 351.5,-0.5 C 361.833,-0.5 372.167,-0.5 382.5,-0.5C 442.268,10.7658 479.102,46.0991 493,105.5C 500.079,159.822 481.579,202.989 437.5,235C 398.98,258.142 358.647,261.808 316.5,246C 307.431,242.052 298.931,237.219 291,231.5C 290.667,300.167 290.333,368.833 290,437.5C 287.61,458.055 276.444,471.055 256.5,476.5C 258.714,493.087 252.381,504.754 237.5,511.5C 229.833,511.5 222.167,511.5 214.5,511.5C 199.416,505.353 193.082,494.02 195.5,477.5C 167.167,477.5 138.833,477.5 110.5,477.5C 113.345,494.25 107.012,505.583 91.5,511.5C 84.1667,511.5 76.8333,511.5 69.5,511.5C 54.0992,505.048 47.7659,493.381 50.5,476.5C 32.593,472.427 21.4263,461.427 17,443.5C 16.3333,320.833 16.3333,198.167 17,75.5C 22.1549,56.164 34.6549,44.9974 54.5,42C 120.5,41.3333 186.5,41.3333 252.5,42C 257.102,42.7756 261.602,43.9423 266,45.5C 272.483,40.0172 278.65,34.1838 284.5,28C 304.289,12.4368 326.622,2.93682 351.5,-0.5 Z M 365.5,16.5 C 412.89,18.9255 447.057,41.2589 468,83.5C 485.949,132.423 476.115,174.923 438.5,211C 404.711,237.632 367.377,243.965 326.5,230C 274.754,206.026 251.921,165.526 258,108.5C 268.359,62.475 296.193,32.975 341.5,20C 349.573,18.3151 357.573,17.1484 365.5,16.5 Z M 55.5,59.5 C 121.892,59.0104 188.225,59.5104 254.5,61C 254.957,61.414 255.291,61.914 255.5,62.5C 236.489,97.7229 233.322,134.39 246,172.5C 247.766,177.198 249.933,181.698 252.5,186C 179.834,186.5 107.167,186.667 34.5,186.5C 34.3333,150.498 34.5,114.498 35,78.5C 38.2574,68.1501 45.0907,61.8167 55.5,59.5 Z M 34.5,204.5 C 111.17,204.167 187.836,204.5 264.5,205.5C 267,208.5 269.5,211.5 272,214.5C 272.667,288.5 272.667,362.5 272,436.5C 270.252,448.187 263.752,455.687 252.5,459C 186.167,459.667 119.833,459.667 53.5,459C 44,456.167 37.8333,450 35,440.5C 34.5,361.834 34.3333,283.167 34.5,204.5 Z M 68.5,477.5 C 76.5,477.5 84.5,477.5 92.5,477.5C 94.3075,492.174 87.9741,497.341 73.5,493C 72.0692,492.535 70.9025,491.701 70,490.5C 68.6326,486.3 68.1326,481.967 68.5,477.5 Z M 213.5,477.5 C 221.833,477.5 230.167,477.5 238.5,477.5C 239.396,492.087 232.729,497.253 218.5,493C 217.069,492.535 215.903,491.701 215,490.5C 213.633,486.3 213.133,481.967 213.5,477.5 Z"/></g>
<g><path style="opacity:0.94" fill="#000000" d="M 366.5,32.5 C 369.338,33.1705 371.838,34.5038 374,36.5C 375.215,41.0509 375.881,45.7176 376,50.5C 380.543,46.4644 385.709,43.4644 391.5,41.5C 400.878,44.2957 402.878,49.7957 397.5,58C 390.074,62.4618 382.908,67.2952 376,72.5C 375.333,83.1667 375.333,93.8333 376,104.5C 385.196,94.9695 394.696,85.8029 404.5,77C 415.514,75.3483 419.347,79.8483 416,90.5C 406.833,99.6667 397.667,108.833 388.5,118C 399.5,118.667 410.5,118.667 421.5,118C 426.444,110.057 431.777,102.391 437.5,95C 445.479,91.6563 450.479,94.1563 452.5,102.5C 450.147,108.039 447.147,113.205 443.5,118C 448.282,118.119 452.949,118.785 457.5,120C 461.051,124.415 461.384,129.082 458.5,134C 453.76,136.072 448.76,137.072 443.5,137C 447.797,141.624 450.797,146.957 452.5,153C 452.016,158.817 448.85,161.984 443,162.5C 440.373,161.686 438.04,160.353 436,158.5C 431.538,151.074 426.705,143.908 421.5,137C 410.833,136.333 400.167,136.333 389.5,137C 399.03,146.196 408.197,155.696 417,165.5C 419.521,172.733 417.021,177.399 409.5,179.5C 407.885,178.846 406.218,178.346 404.5,178C 395,168.5 385.5,159 376,149.5C 375.333,160.5 375.333,171.5 376,182.5C 384.278,187.778 392.278,193.445 400,199.5C 402.515,206.802 400.015,211.469 392.5,213.5C 386.509,211.421 381.009,208.421 376,204.5C 375.667,208.5 375.333,212.5 375,216.5C 370.503,222.291 365.336,222.958 359.5,218.5C 357.862,214.02 357.029,209.353 357,204.5C 352.104,208.281 346.771,211.281 341,213.5C 333.114,211.648 330.447,206.982 333,199.5C 340.722,193.445 348.722,187.778 357,182.5C 357.667,171.5 357.667,160.5 357,149.5C 347.5,159 338,168.5 328.5,178C 321.048,180.593 316.381,177.926 314.5,170C 315,168.5 315.5,167 316,165.5C 324.803,155.696 333.97,146.196 343.5,137C 332.833,136.333 322.167,136.333 311.5,137C 306.222,145.278 300.555,153.278 294.5,161C 287.018,163.553 282.352,160.886 280.5,153C 282.719,147.229 285.719,141.896 289.5,137C 284.647,136.971 279.98,136.138 275.5,134.5C 272.134,130.571 271.634,126.238 274,121.5C 275.255,120.789 276.421,119.956 277.5,119C 281.5,118.667 285.5,118.333 289.5,118C 285.619,113.404 282.953,108.237 281.5,102.5C 282.094,95.0262 286.094,92.1928 293.5,94C 295.286,94.7845 296.786,95.9512 298,97.5C 302.376,104.419 306.876,111.252 311.5,118C 322.5,118.667 333.5,118.667 344.5,118C 335.333,108.833 326.167,99.6667 317,90.5C 313.595,79.9027 317.428,75.4027 328.5,77C 338.304,85.8029 347.804,94.9695 357,104.5C 357.667,93.8333 357.667,83.1667 357,72.5C 350.092,67.2952 342.926,62.4618 335.5,58C 330.118,49.7666 332.118,44.2666 341.5,41.5C 347.27,43.4319 352.437,46.4319 357,50.5C 356.928,45.2402 357.928,40.2402 360,35.5C 362.166,34.2685 364.333,33.2685 366.5,32.5 Z"/></g>
<g><path style="opacity:0.93" fill="#000000" d="M 55.5,101.5 C 61.9911,99.8449 66.1577,102.178 68,108.5C 68.6667,126.833 68.6667,145.167 68,163.5C 65.1202,170.572 60.2869,172.239 53.5,168.5C 52.6667,167.5 51.8333,166.5 51,165.5C 50.3333,145.833 50.3333,126.167 51,106.5C 52.025,104.313 53.525,102.646 55.5,101.5 Z"/></g>
<g><path style="opacity:0.932" fill="#000000" d="M 57.5,220.5 C 62.6511,220.484 66.1511,222.817 68,227.5C 68.6667,245.833 68.6667,264.167 68,282.5C 67.0788,287.466 64.0788,290.133 59,290.5C 55.396,289.703 52.7293,287.703 51,284.5C 50.3333,264.833 50.3333,245.167 51,225.5C 52.8049,223.174 54.9716,221.508 57.5,220.5 Z"/></g>
</svg>
