<?xml version="1.0" encoding="UTF-8"?>
<!DOCTYPE svg PUBLIC "-//W3C//DTD SVG 1.1//EN" "http://www.w3.org/Graphics/SVG/1.1/DTD/svg11.dtd">
<svg xmlns="http://www.w3.org/2000/svg" version="1.1" width="512px" height="512px" style="shape-rendering:geometricPrecision; text-rendering:geometricPrecision; image-rendering:optimizeQuality; fill-rule:evenodd; clip-rule:evenodd" xmlns:xlink="http://www.w3.org/1999/xlink">
<g><path style="opacity:0.968" fill="#414141" d="M 39.5,9.5 C 45.9572,8.97491 50.4572,11.6416 53,17.5C 53.3333,66.1667 53.6667,114.833 54,163.5C 55.1667,166 57,167.833 59.5,169C 67.8267,169.5 76.16,169.666 84.5,169.5C 84.3333,118.499 84.5,67.4989 85,16.5C 88.8434,9.88547 94.3434,8.05214 101.5,11C 103.378,12.5429 104.878,14.3762 106,16.5C 106.5,67.4989 106.667,118.499 106.5,169.5C 114.84,169.666 123.173,169.5 131.5,169C 134,167.833 135.833,166 137,163.5C 137.333,114.833 137.667,66.1667 138,17.5C 144.036,7.664 151.036,6.99733 159,15.5C 159.667,66.5 159.667,117.5 159,168.5C 154.283,184.046 143.783,191.713 127.5,191.5C 127.667,287.167 127.5,382.834 127,478.5C 119.19,497.793 105.024,504.959 84.5,500C 73.9307,496.43 67.0974,489.263 64,478.5C 63.3333,391.833 63.3333,305.167 64,218.5C 68.1968,212.529 73.6968,211.029 80.5,214C 82.8102,215.637 84.3102,217.804 85,220.5C 85.3333,304.833 85.6667,389.167 86,473.5C 90.3908,479.626 95.8908,480.792 102.5,477C 103.701,476.097 104.535,474.931 105,473.5C 105.5,379.501 105.667,285.501 105.5,191.5C 87.1113,191.947 68.778,191.447 50.5,190C 42.3333,186.5 36.5,180.667 33,172.5C 31.3511,120.212 31.0177,67.8785 32,15.5C 34.1337,12.8474 36.6337,10.8474 39.5,9.5 Z"/></g>
<g><path style="opacity:0.966" fill="#424242" d="M 410.5,21.5 C 423.474,20.8245 435.141,24.3245 445.5,32C 463.834,48.831 474.667,69.6643 478,94.5C 483.319,126.274 478.319,156.274 463,184.5C 458.477,190.869 453.477,196.869 448,202.5C 447.667,294.5 447.333,386.5 447,478.5C 439.19,497.793 425.024,504.959 404.5,500C 393.931,496.43 387.097,489.263 384,478.5C 383.333,395.5 383.333,312.5 384,229.5C 386.071,225.047 389.571,223.047 394.5,223.5C 400.084,223.38 403.584,226.047 405,231.5C 405.333,312.167 405.667,392.833 406,473.5C 409.622,478.818 414.456,480.318 420.5,478C 422.667,477.167 424.167,475.667 425,473.5C 425.833,386.831 425.667,300.165 424.5,213.5C 402.558,216.115 385.058,208.448 372,190.5C 352.451,159.015 346.451,125.015 354,88.5C 358.164,65.9942 368.664,47.1608 385.5,32C 393.151,26.6238 401.485,23.1238 410.5,21.5 Z M 409.5,44.5 C 417.05,43.5431 424.05,45.0431 430.5,49C 442.474,59.6545 450.307,72.8212 454,88.5C 461.011,116.98 458.011,144.313 445,170.5C 425.333,199.833 405.667,199.833 386,170.5C 370.097,137.147 369.43,103.48 384,69.5C 389.768,58.2304 398.268,49.8971 409.5,44.5 Z"/></g>
<g><path style="opacity:0.968" fill="#414141" d="M 271.5,31.5 C 274.85,31.335 278.183,31.5017 281.5,32C 284,33.1667 285.833,35 287,37.5C 287.667,184.5 287.667,331.5 287,478.5C 279.19,497.793 265.024,504.959 244.5,500C 233.931,496.43 227.097,489.263 224,478.5C 223.667,411.5 223.333,344.5 223,277.5C 207.634,257.731 200.467,235.231 201.5,210C 201.183,165.243 210.683,122.743 230,82.5C 240.532,62.7427 254.365,45.7427 271.5,31.5 Z M 264.5,70.5 C 265.665,140.999 265.832,211.665 265,282.5C 235.175,266.362 221.675,241.196 224.5,207C 223.952,164.733 233.452,124.899 253,87.5C 256.663,81.6788 260.497,76.0121 264.5,70.5 Z M 245.5,297.5 C 251.512,301.066 257.845,304.066 264.5,306.5C 265.667,362.164 265.833,417.83 265,473.5C 260.609,479.626 255.109,480.792 248.5,477C 247.299,476.097 246.465,474.931 246,473.5C 245.5,414.834 245.333,356.168 245.5,297.5 Z"/></g>
</svg>
