<?xml version="1.0" encoding="UTF-8"?>
<!DOCTYPE svg PUBLIC "-//W3C//DTD SVG 1.1//EN" "http://www.w3.org/Graphics/SVG/1.1/DTD/svg11.dtd">
<svg xmlns="http://www.w3.org/2000/svg" version="1.1" width="512px" height="512px" style="shape-rendering:geometricPrecision; text-rendering:geometricPrecision; image-rendering:optimizeQuality; fill-rule:evenodd; clip-rule:evenodd" xmlns:xlink="http://www.w3.org/1999/xlink">
<g><path style="opacity:0.999" fill="#000000" d="M 3.5,-0.5 C 171.5,-0.5 339.5,-0.5 507.5,-0.5C 509.167,0.5 510.5,1.83333 511.5,3.5C 511.5,171.5 511.5,339.5 511.5,507.5C 510.5,509.167 509.167,510.5 507.5,511.5C 339.5,511.5 171.5,511.5 3.5,511.5C 1.83333,510.5 0.5,509.167 -0.5,507.5C -0.5,339.5 -0.5,171.5 -0.5,3.5C 0.5,1.83333 1.83333,0.5 3.5,-0.5 Z M 15.5,15.5 C 175.5,15.5 335.5,15.5 495.5,15.5C 495.5,175.5 495.5,335.5 495.5,495.5C 335.5,495.5 175.5,495.5 15.5,495.5C 15.5,335.5 15.5,175.5 15.5,15.5 Z M 139.5,63.5 C 170.828,66.3285 190.328,82.9952 198,113.5C 201.189,142.95 189.689,164.45 163.5,178C 128.87,189.24 102.704,179.073 85,147.5C 74.1529,115.037 82.9862,89.5372 111.5,71C 120.477,66.6466 129.81,64.1466 139.5,63.5 Z M 374.5,64.5 C 403.222,62.4082 421.722,75.0748 430,102.5C 433.073,123.514 425.906,140.014 408.5,152C 382.396,164.515 360.562,159.348 343,136.5C 330.901,112.072 335.068,90.9055 355.5,73C 361.453,69.0811 367.786,66.2477 374.5,64.5 Z M 359.5,223.5 C 397.234,226.732 420.734,246.732 430,283.5C 433.068,327.087 413.568,354.587 371.5,366C 334.838,369.425 308.672,354.592 293,321.5C 281.359,281.97 293.193,251.803 328.5,231C 338.556,226.735 348.89,224.235 359.5,223.5 Z M 139.5,247.5 C 170.828,250.329 190.328,266.995 198,297.5C 201.189,326.95 189.689,348.45 163.5,362C 128.87,373.24 102.704,363.073 85,331.5C 74.1529,299.037 82.9862,273.537 111.5,255C 120.477,250.647 129.81,248.147 139.5,247.5 Z M 84.5,432.5 C 93.8504,432.365 96.517,436.532 92.5,445C 83.9562,448.322 80.1229,445.489 81,436.5C 81.6897,434.65 82.8564,433.316 84.5,432.5 Z M 196.5,432.5 C 205.85,432.365 208.517,436.532 204.5,445C 195.956,448.322 192.123,445.489 193,436.5C 193.69,434.65 194.856,433.316 196.5,432.5 Z M 308.5,432.5 C 317.85,432.365 320.517,436.532 316.5,445C 307.956,448.322 304.123,445.489 305,436.5C 305.69,434.65 306.856,433.316 308.5,432.5 Z M 420.5,432.5 C 429.85,432.365 432.517,436.532 428.5,445C 419.956,448.322 416.123,445.489 417,436.5C 417.69,434.65 418.856,433.316 420.5,432.5 Z"/></g>
<g><path style="opacity:0.93" fill="#000000" d="M 127.5,47.5 C 168.149,44.2263 196.316,61.2263 212,98.5C 222.346,136.474 211.512,166.641 179.5,189C 142.847,207.474 110.014,202.307 81,173.5C 62.2574,149.126 58.2574,122.46 69,93.5C 80.7586,68.2332 100.259,52.8999 127.5,47.5 Z M 139.5,63.5 C 129.81,64.1466 120.477,66.6466 111.5,71C 82.9862,89.5372 74.1529,115.037 85,147.5C 102.704,179.073 128.87,189.24 163.5,178C 189.689,164.45 201.189,142.95 198,113.5C 190.328,82.9952 170.828,66.3285 139.5,63.5 Z"/></g>
<g><path style="opacity:0.929" fill="#000000" d="M 372.5,47.5 C 406.038,44.5121 429.872,58.1788 444,88.5C 453.671,120.484 445.171,146.318 418.5,166C 400.064,176.264 380.73,178.264 360.5,172C 327.695,156.812 314.529,131.312 321,95.5C 328.746,69.2501 345.912,53.2501 372.5,47.5 Z M 374.5,64.5 C 367.786,66.2477 361.453,69.0811 355.5,73C 335.068,90.9055 330.901,112.072 343,136.5C 360.562,159.348 382.396,164.515 408.5,152C 425.906,140.014 433.073,123.514 430,102.5C 421.722,75.0748 403.222,62.4082 374.5,64.5 Z"/></g>
<g><path style="opacity:0.929" fill="#000000" d="M 346.5,207.5 C 385.128,204.067 414.961,218.401 436,250.5C 449.402,276.408 451.069,303.074 441,330.5C 427.452,360.04 404.619,377.54 372.5,383C 328.861,386.939 297.361,369.439 278,330.5C 263.981,291.755 271.481,257.922 300.5,229C 313.997,217.75 329.33,210.583 346.5,207.5 Z M 359.5,223.5 C 348.89,224.235 338.556,226.735 328.5,231C 293.193,251.803 281.359,281.97 293,321.5C 308.672,354.592 334.838,369.425 371.5,366C 413.568,354.587 433.068,327.087 430,283.5C 420.734,246.732 397.234,226.732 359.5,223.5 Z"/></g>
<g><path style="opacity:0.93" fill="#000000" d="M 127.5,231.5 C 168.149,228.226 196.316,245.226 212,282.5C 222.346,320.474 211.512,350.641 179.5,373C 142.847,391.474 110.014,386.307 81,357.5C 62.2574,333.126 58.2574,306.46 69,277.5C 80.7586,252.233 100.259,236.9 127.5,231.5 Z M 139.5,247.5 C 129.81,248.147 120.477,250.647 111.5,255C 82.9862,273.537 74.1529,299.037 85,331.5C 102.704,363.073 128.87,373.24 163.5,362C 189.689,348.45 201.189,326.95 198,297.5C 190.328,266.995 170.828,250.329 139.5,247.5 Z"/></g>
<g><path style="opacity:0.933" fill="#000000" d="M 80.5,415.5 C 95.367,413.012 105.534,418.678 111,432.5C 113.982,447.376 108.482,457.543 94.5,463C 79.6239,465.982 69.4572,460.482 64,446.5C 61.1465,431.533 66.6465,421.199 80.5,415.5 Z M 84.5,432.5 C 82.8564,433.316 81.6897,434.65 81,436.5C 80.1229,445.489 83.9562,448.322 92.5,445C 96.517,436.532 93.8504,432.365 84.5,432.5 Z"/></g>
<g><path style="opacity:0.933" fill="#000000" d="M 192.5,415.5 C 207.367,413.012 217.534,418.678 223,432.5C 225.982,447.376 220.482,457.543 206.5,463C 191.624,465.982 181.457,460.482 176,446.5C 173.146,431.533 178.646,421.199 192.5,415.5 Z M 196.5,432.5 C 194.856,433.316 193.69,434.65 193,436.5C 192.123,445.489 195.956,448.322 204.5,445C 208.517,436.532 205.85,432.365 196.5,432.5 Z"/></g>
<g><path style="opacity:0.933" fill="#000000" d="M 304.5,415.5 C 319.367,413.012 329.534,418.678 335,432.5C 337.982,447.376 332.482,457.543 318.5,463C 303.624,465.982 293.457,460.482 288,446.5C 285.146,431.533 290.646,421.199 304.5,415.5 Z M 308.5,432.5 C 306.856,433.316 305.69,434.65 305,436.5C 304.123,445.489 307.956,448.322 316.5,445C 320.517,436.532 317.85,432.365 308.5,432.5 Z"/></g>
<g><path style="opacity:0.933" fill="#000000" d="M 416.5,415.5 C 431.367,413.012 441.534,418.678 447,432.5C 449.982,447.376 444.482,457.543 430.5,463C 415.624,465.982 405.457,460.482 400,446.5C 397.146,431.533 402.646,421.199 416.5,415.5 Z M 420.5,432.5 C 418.856,433.316 417.69,434.65 417,436.5C 416.123,445.489 419.956,448.322 428.5,445C 432.517,436.532 429.85,432.365 420.5,432.5 Z"/></g>
</svg>
