<?xml version="1.0" encoding="UTF-8"?>
<!DOCTYPE svg PUBLIC "-//W3C//DTD SVG 1.1//EN" "http://www.w3.org/Graphics/SVG/1.1/DTD/svg11.dtd">
<svg xmlns="http://www.w3.org/2000/svg" version="1.1" width="512px" height="512px" style="shape-rendering:geometricPrecision; text-rendering:geometricPrecision; image-rendering:optimizeQuality; fill-rule:evenodd; clip-rule:evenodd" xmlns:xlink="http://www.w3.org/1999/xlink">
<g><path style="opacity:0.997" fill="#000000" d="M 32.5,15.5 C 181.167,15.3333 329.834,15.5 478.5,16C 487.333,18.1667 492.833,23.6667 495,32.5C 495.667,181.167 495.667,329.833 495,478.5C 492.833,487.333 487.333,492.833 478.5,495C 329.833,495.667 181.167,495.667 32.5,495C 23.6667,492.833 18.1667,487.333 16,478.5C 15.3333,329.833 15.3333,181.167 16,32.5C 18.3493,23.6522 23.8493,17.9855 32.5,15.5 Z M 39.5,31.5 C 183.5,31.3333 327.5,31.5 471.5,32C 476,32.5 478.5,35 479,39.5C 479.5,63.4977 479.667,87.4977 479.5,111.5C 330.167,111.5 180.833,111.5 31.5,111.5C 31.3334,87.4977 31.5,63.4977 32,39.5C 32.6804,34.9895 35.1804,32.3228 39.5,31.5 Z M 227.5,61.5 C 235.549,61.9525 238.382,65.9525 236,73.5C 230.879,77.8754 226.545,77.2087 223,71.5C 222.077,67.0165 223.577,63.6832 227.5,61.5 Z M 307.5,61.5 C 315.549,61.9525 318.382,65.9525 316,73.5C 310.879,77.8754 306.545,77.2087 303,71.5C 302.077,67.0165 303.577,63.6832 307.5,61.5 Z M 79.5,63.5 C 106.169,63.3334 132.835,63.5 159.5,64C 166.076,65.1749 168.243,69.0082 166,75.5C 164.442,77.7676 162.276,78.9343 159.5,79C 132.833,79.6667 106.167,79.6667 79.5,79C 72.9239,77.8251 70.7573,73.9918 73,67.5C 74.7918,65.372 76.9584,64.0387 79.5,63.5 Z M 31.5,127.5 C 180.833,127.5 330.167,127.5 479.5,127.5C 479.992,243.543 479.492,359.543 478,475.5C 476.442,477.768 474.276,478.934 471.5,479C 327.5,479.667 183.5,479.667 39.5,479C 36.7244,478.934 34.5577,477.768 33,475.5C 31.5078,359.543 31.0078,243.543 31.5,127.5 Z M 95.5,183.5 C 203.544,183.008 311.544,183.508 419.5,185C 421.768,186.558 422.934,188.724 423,191.5C 423.988,270.21 423.655,348.877 422,427.5C 420.442,429.768 418.276,430.934 415.5,431C 307.457,431.992 199.457,431.658 91.5,430C 89.2324,428.442 88.0657,426.276 88,423.5C 87.3333,346.167 87.3333,268.833 88,191.5C 88.6804,186.989 91.1804,184.323 95.5,183.5 Z"/></g>
<g><path style="opacity:0.931" fill="#000000" d="M 223.5,45.5 C 241.788,43.3193 252.455,51.1527 255.5,69C 253.845,84.3223 245.345,92.489 230,93.5C 210.707,90.5757 203.04,79.5757 207,60.5C 210.173,52.8218 215.673,47.8218 223.5,45.5 Z M 227.5,61.5 C 223.577,63.6832 222.077,67.0165 223,71.5C 226.545,77.2087 230.879,77.8754 236,73.5C 238.382,65.9525 235.549,61.9525 227.5,61.5 Z"/></g>
<g><path style="opacity:0.931" fill="#000000" d="M 303.5,45.5 C 321.788,43.3193 332.455,51.1527 335.5,69C 333.845,84.3223 325.345,92.489 310,93.5C 290.707,90.5757 283.04,79.5757 287,60.5C 290.173,52.8218 295.673,47.8218 303.5,45.5 Z M 307.5,61.5 C 303.577,63.6832 302.077,67.0165 303,71.5C 306.545,77.2087 310.879,77.8754 316,73.5C 318.382,65.9525 315.549,61.9525 307.5,61.5 Z"/></g>
<g><path style="opacity:0.975" fill="#000000" d="M 72.5,47.5 C 103.835,47.3334 135.168,47.5 166.5,48C 180.444,53.3774 185.944,63.544 183,78.5C 180.833,87.3333 175.333,92.8333 166.5,95C 135.167,95.6667 103.833,95.6667 72.5,95C 58.5557,89.6226 53.0557,79.456 56,64.5C 58.3493,55.6522 63.8493,49.9855 72.5,47.5 Z M 79.5,63.5 C 76.9584,64.0387 74.7918,65.372 73,67.5C 70.7573,73.9918 72.9239,77.8251 79.5,79C 106.167,79.6667 132.833,79.6667 159.5,79C 162.276,78.9343 164.442,77.7676 166,75.5C 168.243,69.0082 166.076,65.1749 159.5,64C 132.835,63.5 106.169,63.3334 79.5,63.5 Z"/></g>
<g><path style="opacity:0.994" fill="#000000" d="M 88.5,167.5 C 199.834,167.333 311.167,167.5 422.5,168C 431.333,170.167 436.833,175.667 439,184.5C 439.667,266.5 439.667,348.5 439,430.5C 436.833,439.333 431.333,444.833 422.5,447C 311.167,447.667 199.833,447.667 88.5,447C 79.6667,444.833 74.1667,439.333 72,430.5C 71.3333,348.5 71.3333,266.5 72,184.5C 74.3493,175.652 79.8493,169.986 88.5,167.5 Z M 95.5,183.5 C 91.1804,184.323 88.6804,186.989 88,191.5C 87.3333,268.833 87.3333,346.167 88,423.5C 88.0657,426.276 89.2324,428.442 91.5,430C 199.457,431.658 307.457,431.992 415.5,431C 418.276,430.934 420.442,429.768 422,427.5C 423.655,348.877 423.988,270.21 423,191.5C 422.934,188.724 421.768,186.558 419.5,185C 311.544,183.508 203.544,183.008 95.5,183.5 Z"/></g>
<g><path style="opacity:0.924" fill="#000000" d="M 240.5,246.5 C 244.131,246.16 247.464,246.994 250.5,249C 261.576,257.071 270.076,267.237 276,279.5C 280.608,290.176 280.608,300.843 276,311.5C 266.214,324.625 257.214,338.292 249,352.5C 246.528,358.591 247.195,364.258 251,369.5C 252.904,376.699 250.404,381.366 243.5,383.5C 240.889,383.444 238.722,382.444 237,380.5C 229.223,365.251 229.889,350.251 239,335.5C 245.755,325.656 252.755,315.99 260,306.5C 263.825,295.95 262.159,286.284 255,277.5C 248.969,271.134 242.636,265.134 236,259.5C 234.379,253.923 235.879,249.589 240.5,246.5 Z"/></g>
<g><path style="opacity:0.921" fill="#000000" d="M 160.5,248.5 C 163.978,248.184 167.312,248.684 170.5,250C 187.715,261.261 197.715,277.094 200.5,297.5C 200.076,303.456 198.576,309.123 196,314.5C 186.157,326.684 177.49,339.684 170,353.5C 168.543,357.741 168.209,362.074 169,366.5C 176.692,379.279 173.192,384.612 158.5,382.5C 151.725,373.118 149.892,362.785 153,351.5C 155.473,345.221 158.473,339.221 162,333.5C 168.333,324.833 174.667,316.167 181,307.5C 184.265,300.861 184.265,294.195 181,287.5C 175.095,276.927 167.095,268.26 157,261.5C 155.539,256.284 156.705,251.95 160.5,248.5 Z"/></g>
<g><path style="opacity:0.921" fill="#000000" d="M 328.5,248.5 C 331.978,248.184 335.312,248.684 338.5,250C 355.715,261.261 365.715,277.094 368.5,297.5C 368.076,303.456 366.576,309.123 364,314.5C 354.157,326.684 345.49,339.684 338,353.5C 336.543,357.741 336.209,362.074 337,366.5C 344.692,379.279 341.192,384.612 326.5,382.5C 319.725,373.118 317.892,362.785 321,351.5C 323.473,345.221 326.473,339.221 330,333.5C 336.333,324.833 342.667,316.167 349,307.5C 352.265,300.861 352.265,294.195 349,287.5C 343.095,276.927 335.095,268.26 325,261.5C 323.539,256.284 324.705,251.95 328.5,248.5 Z"/></g>
</svg>
