<?xml version="1.0" encoding="UTF-8"?>
<!DOCTYPE svg PUBLIC "-//W3C//DTD SVG 1.1//EN" "http://www.w3.org/Graphics/SVG/1.1/DTD/svg11.dtd">
<svg xmlns="http://www.w3.org/2000/svg" version="1.1" width="512px" height="512px" style="shape-rendering:geometricPrecision; text-rendering:geometricPrecision; image-rendering:optimizeQuality; fill-rule:evenodd; clip-rule:evenodd" xmlns:xlink="http://www.w3.org/1999/xlink">
<g><path style="opacity:0.924" fill="#000000" d="M 170.5,-0.5 C 174.5,-0.5 178.5,-0.5 182.5,-0.5C 202.672,7.1758 210.172,21.5091 205,42.5C 198.15,56.8545 186.65,64.0212 170.5,64C 159.183,69.2681 156.35,77.4347 162,88.5C 166.232,93.6925 171.732,96.1925 178.5,96C 180.333,96.5 181.5,97.6667 182,99.5C 184.293,106.93 181.627,110.93 174,111.5C 155.283,108.95 144.783,98.2833 142.5,79.5C 143.196,65.9201 149.53,56.0868 161.5,50C 169.319,48.5045 176.985,46.5045 184.5,44C 191.497,36.8652 192.33,29.0319 187,20.5C 182.252,16.6056 176.752,14.439 170.5,14C 165.402,9.2261 165.402,4.39277 170.5,-0.5 Z"/></g>
<g><path style="opacity:0.921" fill="#000000" d="M 255.5,-0.5 C 259.5,-0.5 263.5,-0.5 267.5,-0.5C 290.417,9.78337 296.584,26.45 286,49.5C 282.03,54.4754 277.197,58.3088 271.5,61C 264.35,62.1345 257.35,63.8012 250.5,66C 241.536,74.3399 241.203,83.0065 249.5,92C 253.521,94.3403 257.854,95.6736 262.5,96C 267.299,99.0711 268.465,103.238 266,108.5C 264.014,110.742 261.514,111.742 258.5,111.5C 239.108,109.275 228.775,98.4419 227.5,79C 227.824,64.3589 234.824,54.3589 248.5,49C 255.435,48.3028 262.101,46.6362 268.5,44C 276.216,37.5358 277.383,30.0358 272,21.5C 267.272,16.5609 261.438,14.0609 254.5,14C 250.285,8.71951 250.618,3.88618 255.5,-0.5 Z"/></g>
<g><path style="opacity:0.922" fill="#000000" d="M 339.5,-0.5 C 343.5,-0.5 347.5,-0.5 351.5,-0.5C 369.516,6.17556 377.349,19.1756 375,38.5C 371.897,50.5381 364.397,58.3715 352.5,62C 347.104,62.7228 341.771,63.7228 336.5,65C 326.46,71.9364 324.96,80.4364 332,90.5C 336.499,94.1115 341.666,95.9449 347.5,96C 352.381,100.375 352.715,105.042 348.5,110C 332.467,112.399 320.967,106.232 314,91.5C 307.89,69.886 315.39,55.386 336.5,48C 347.091,49.1267 354.591,44.96 359,35.5C 360.39,28.3347 358.223,22.5014 352.5,18C 347.391,16.3764 342.391,14.543 337.5,12.5C 334.557,7.55706 335.224,3.22373 339.5,-0.5 Z"/></g>
<g><path style="opacity:0.945" fill="#000000" d="M 438.5,511.5 C 413.5,511.5 388.5,511.5 363.5,511.5C 352.313,506.134 347.647,497.134 349.5,484.5C 282.833,484.5 216.167,484.5 149.5,484.5C 150.841,496.824 146.174,505.824 135.5,511.5C 110.167,511.5 84.8333,511.5 59.5,511.5C 48.8463,505.867 44.1796,496.867 45.5,484.5C 36.1607,484.666 26.8274,484.5 17.5,484C 15.1523,483.654 13.3189,482.487 12,480.5C 11.3333,402.833 11.3333,325.167 12,247.5C 18.92,201.472 43.42,168.639 85.5,149C 96.4151,144.438 107.748,141.438 119.5,140C 209.833,139.333 300.167,139.333 390.5,140C 441.887,148.053 476.387,176.553 494,225.5C 496.417,233.001 498.084,240.667 499,248.5C 499.667,325.833 499.667,403.167 499,480.5C 497.681,482.487 495.848,483.654 493.5,484C 480.171,484.5 466.837,484.667 453.5,484.5C 454.409,497.033 449.409,506.033 438.5,511.5 Z M 121.5,155.5 C 210.501,155.333 299.501,155.5 388.5,156C 440.597,165.129 471.764,195.629 482,247.5C 483.462,321.149 483.962,394.816 483.5,468.5C 331.5,468.5 179.5,468.5 27.5,468.5C 27.3333,395.499 27.5,322.499 28,249.5C 34.2319,209.855 55.3985,181.355 91.5,164C 101.36,160.206 111.36,157.372 121.5,155.5 Z M 143.5,191.5 C 217.833,191.5 292.167,191.5 366.5,191.5C 366.5,194.5 366.5,197.5 366.5,200.5C 292.167,200.5 217.833,200.5 143.5,200.5C 143.5,197.5 143.5,194.5 143.5,191.5 Z M 434.5,352.5 C 439.067,352.056 442.067,354.056 443.5,358.5C 441.327,364.634 437.493,365.967 432,362.5C 430.11,358.58 430.943,355.246 434.5,352.5 Z M 61.5,484.5 C 85.5,484.5 109.5,484.5 133.5,484.5C 133.929,488.257 133.263,491.757 131.5,495C 109.167,495.667 86.8333,495.667 64.5,495C 62.0713,491.959 61.0713,488.459 61.5,484.5 Z M 364.5,484.5 C 388.167,484.5 411.833,484.5 435.5,484.5C 436.821,488.231 436.488,491.731 434.5,495C 412.167,495.667 389.833,495.667 367.5,495C 364.9,492.016 363.9,488.516 364.5,484.5 Z"/></g>
<g><path style="opacity:0.942" fill="#000000" d="M 134.5,175.5 C 214.834,175.333 295.167,175.5 375.5,176C 378.494,176.406 380.661,177.906 382,180.5C 382.667,190.833 382.667,201.167 382,211.5C 381.215,213.286 380.049,214.786 378.5,216C 296.167,216.667 213.833,216.667 131.5,216C 130.069,215.535 128.903,214.701 128,213.5C 127.333,202.167 127.333,190.833 128,179.5C 129.792,177.372 131.958,176.039 134.5,175.5 Z M 143.5,191.5 C 143.5,194.5 143.5,197.5 143.5,200.5C 217.833,200.5 292.167,200.5 366.5,200.5C 366.5,197.5 366.5,194.5 366.5,191.5C 292.167,191.5 217.833,191.5 143.5,191.5 Z"/></g>
<g><path style="opacity:0.92" fill="#000000" d="M 435.5,267.5 C 438.939,267.589 441.772,268.922 444,271.5C 444.667,283.5 444.667,295.5 444,307.5C 442.607,310.366 440.274,311.699 437,311.5C 433.726,311.699 431.393,310.366 430,307.5C 428.022,295.513 428.022,283.513 430,271.5C 431.456,269.535 433.29,268.201 435.5,267.5 Z"/></g>
<g><path style="opacity:0.925" fill="#000000" d="M 431.5,336.5 C 447.635,335.312 456.968,342.645 459.5,358.5C 456.318,376.829 445.652,383.663 427.5,379C 414.796,371.026 411.629,360.193 418,346.5C 421.531,341.795 426.031,338.462 431.5,336.5 Z M 434.5,352.5 C 430.943,355.246 430.11,358.58 432,362.5C 437.493,365.967 441.327,364.634 443.5,358.5C 442.067,354.056 439.067,352.056 434.5,352.5 Z"/></g>
</svg>
