<?xml version="1.0" encoding="UTF-8"?>
<!DOCTYPE svg PUBLIC "-//W3C//DTD SVG 1.1//EN" "http://www.w3.org/Graphics/SVG/1.1/DTD/svg11.dtd">
<svg xmlns="http://www.w3.org/2000/svg" version="1.1" width="512px" height="512px" style="shape-rendering:geometricPrecision; text-rendering:geometricPrecision; image-rendering:optimizeQuality; fill-rule:evenodd; clip-rule:evenodd" xmlns:xlink="http://www.w3.org/1999/xlink">
<g><path style="opacity:0.991" fill="#000000" d="M 10.5,-0.5 C 173.833,-0.5 337.167,-0.5 500.5,-0.5C 505.167,2.16667 508.833,5.83333 511.5,10.5C 511.5,160.5 511.5,310.5 511.5,460.5C 506.082,470.204 497.749,474.037 486.5,472C 480.874,481.418 475.374,490.918 470,500.5C 465.522,505.306 460.356,508.973 454.5,511.5C 349.5,511.5 244.5,511.5 139.5,511.5C 134.311,506.587 134.311,501.753 139.5,497C 243.535,496.989 347.535,496.322 451.5,495C 453.624,493.878 455.457,492.378 457,490.5C 460.373,484.252 463.873,478.085 467.5,472C 326.167,471.333 184.833,471.333 43.5,472C 47.1265,478.085 50.6265,484.252 54,490.5C 55.5429,492.378 57.3762,493.878 59.5,495C 77.8804,495.958 96.2138,496.958 114.5,498C 117.591,503.201 116.925,507.701 112.5,511.5C 93.8333,511.5 75.1667,511.5 56.5,511.5C 50.6444,508.973 45.4778,505.306 41,500.5C 35.6263,490.918 30.1263,481.418 24.5,472C 13.251,474.037 4.91772,470.204 -0.5,460.5C -0.5,329.833 -0.5,199.167 -0.5,68.5C 4.3345,64.5368 9.16783,64.5368 14,68.5C 14.3333,196.833 14.6667,325.167 15,453.5C 15.3076,454.308 15.8076,454.975 16.5,455.5C 175.46,456.665 334.46,456.832 493.5,456C 494.667,455.5 495.5,454.667 496,453.5C 496.832,307.793 496.665,162.127 495.5,16.5C 494.975,15.8076 494.308,15.3076 493.5,15C 410.834,14.5 328.167,14.3333 245.5,14.5C 245.667,28.1707 245.5,41.8374 245,55.5C 243.878,57.6238 242.378,59.4571 240.5,61C 212.251,62.159 183.918,62.659 155.5,62.5C 127.082,62.659 98.7488,62.159 70.5,61C 68.1064,59.0478 66.6064,56.5478 66,53.5C 65.5001,40.5043 65.3334,27.5043 65.5,14.5C 49.4965,14.3334 33.4965,14.5001 17.5,15C 16.3333,15.5 15.5,16.3333 15,17.5C 14.6667,25.5 14.3333,33.5 14,41.5C 9.16783,45.4632 4.3345,45.4632 -0.5,41.5C -0.5,31.1667 -0.5,20.8333 -0.5,10.5C 2.16667,5.83333 5.83333,2.16667 10.5,-0.5 Z M 81.5,14.5 C 130.833,14.5 180.167,14.5 229.5,14.5C 229.5,25.5 229.5,36.5 229.5,47.5C 180.167,47.5 130.833,47.5 81.5,47.5C 81.5,36.5 81.5,25.5 81.5,14.5 Z M 115.5,141.5 C 120.144,148.106 124.311,155.106 128,162.5C 134.915,166.374 141.749,170.374 148.5,174.5C 141.25,178.708 134.084,183.041 127,187.5C 123.333,194.167 119.667,200.833 116,207.5C 112.129,199.586 107.629,192.086 102.5,185C 96.0031,181.586 89.6697,177.919 83.5,174C 90.9257,170.232 98.0924,166.066 105,161.5C 108.78,154.937 112.28,148.271 115.5,141.5 Z M 168.5,179.5 C 220.11,179.537 256.61,202.871 278,249.5C 287.831,276.11 287.998,302.776 278.5,329.5C 266.162,329.667 253.829,329.5 241.5,329C 258.998,295.487 255.498,264.321 231,235.5C 201.548,209.58 169.381,205.746 134.5,224C 103.696,246.07 92.8632,275.57 102,312.5C 103.823,318.313 106.323,323.813 109.5,329C 97.1712,329.5 84.8378,329.667 72.5,329.5C 57.8504,284.445 66.6838,244.779 99,210.5C 101.545,215.761 104.712,220.594 108.5,225C 117.438,229.465 124.271,227.298 129,218.5C 132.078,212.009 135.412,205.675 139,199.5C 147.574,193.934 156.407,188.768 165.5,184C 166.386,182.385 167.386,180.885 168.5,179.5 Z M 247.5,179.5 C 298.703,178.504 335.536,200.837 358,246.5C 368.724,273.647 369.224,300.981 359.5,328.5C 347.5,329.833 335.5,329.833 323.5,328.5C 340.911,292.74 335.911,260.573 308.5,232C 299.515,224.005 289.182,218.338 277.5,215C 267.319,200.815 254.652,189.482 239.5,181C 242.365,180.817 245.031,180.317 247.5,179.5 Z M 325.5,179.5 C 370.613,178.137 405.446,196.137 430,233.5C 447.17,264.22 450.003,296.22 438.5,329.5C 426.162,329.667 413.829,329.5 401.5,329C 420.382,291.168 414.382,257.835 383.5,229C 376.107,223.635 368.107,219.302 359.5,216C 348.988,201.484 335.988,189.817 320.5,181C 322.382,180.802 324.048,180.302 325.5,179.5 Z M 168.5,228.5 C 202.668,227.991 224.835,243.991 235,276.5C 238.865,296.206 234.365,313.706 221.5,329C 190.833,329.667 160.167,329.667 129.5,329C 110.1,303.558 109.6,277.724 128,251.5C 138.782,238.85 152.282,231.184 168.5,228.5 Z M 291.5,239.5 C 312.73,255.657 320.897,276.99 316,303.5C 313.947,312.939 309.781,321.272 303.5,328.5C 300.914,329.48 298.247,329.813 295.5,329.5C 304.536,299.022 303.202,269.022 291.5,239.5 Z M 374.5,243.5 C 395.501,262.501 401.334,285.501 392,312.5C 389.839,317.492 387.172,322.159 384,326.5C 382.067,329.385 379.567,330.052 376.5,328.5C 384.992,299.955 384.326,271.622 374.5,243.5 Z M 44.5,345.5 C 185.167,345.5 325.833,345.5 466.5,345.5C 466.5,350.167 466.5,354.833 466.5,359.5C 325.833,359.5 185.167,359.5 44.5,359.5C 44.5,354.833 44.5,350.167 44.5,345.5 Z M 44.5,375.5 C 57.5043,375.333 70.5043,375.5 83.5,376C 121.183,412.962 165.35,423.796 216,408.5C 242.511,417.434 269.177,417.767 296,409.5C 346.43,423.602 390.263,412.435 427.5,376C 440.496,375.5 453.496,375.333 466.5,375.5C 466.667,388.837 466.5,402.171 466,415.5C 465.167,421.667 461.667,425.167 455.5,426C 322.167,426.667 188.833,426.667 55.5,426C 49.3333,425.167 45.8333,421.667 45,415.5C 44.5001,402.171 44.3334,388.837 44.5,375.5 Z M 107.5,376.5 C 152.665,375.335 197.998,375.169 243.5,376C 198.261,407.163 152.928,407.33 107.5,376.5 Z M 267.5,375.5 C 286.503,375.333 305.503,375.5 324.5,376C 299.355,395.37 271.021,402.704 239.5,398C 250.177,392.154 259.511,384.654 267.5,375.5 Z M 348.5,375.5 C 366.836,375.333 385.17,375.5 403.5,376C 379.204,394.574 351.871,401.908 321.5,398C 331.567,391.766 340.567,384.266 348.5,375.5 Z"/></g>
<g><path style="opacity:0.927" fill="#000000" d="M 294.5,29.5 C 310.289,26.8067 321.122,32.8067 327,47.5C 330.179,63.2932 324.345,74.1265 309.5,80C 289.974,82.8075 278.641,74.4742 275.5,55C 276.779,42.5758 283.113,34.0758 294.5,29.5 Z M 297.5,45.5 C 307.492,44.3271 311.992,48.6604 311,58.5C 308.081,64.0248 303.581,65.8581 297.5,64C 289.736,57.896 289.736,51.7293 297.5,45.5 Z"/></g>
<g><path style="opacity:0.927" fill="#000000" d="M 354.5,29.5 C 376.978,27.8135 387.811,38.1468 387,60.5C 381.905,76.306 371.072,82.806 354.5,80C 340.102,74.9157 333.935,64.749 336,49.5C 338.587,39.4168 344.753,32.7502 354.5,29.5 Z M 357.5,45.5 C 365.452,43.9682 370.119,47.1349 371.5,55C 370.12,63.0269 365.453,66.0269 357.5,64C 349.565,57.8375 349.565,51.6709 357.5,45.5 Z"/></g>
<g><path style="opacity:0.927" fill="#000000" d="M 413.5,29.5 C 433.008,27.1808 444.341,35.6808 447.5,55C 442.505,78.3324 428.838,85.6657 406.5,77C 395.223,67.6545 392.389,56.1545 398,42.5C 401.869,36.4518 407.035,32.1185 413.5,29.5 Z M 417.5,45.5 C 424.994,44.4928 429.66,47.6595 431.5,55C 429.671,62.5055 425.005,65.5055 417.5,64C 412.268,61.3674 410.435,57.2008 412,51.5C 413.36,48.9774 415.193,46.9774 417.5,45.5 Z"/></g>
<g><path style="opacity:0.953" fill="#000000" d="M 47.5,104.5 C 162.5,104.333 277.5,104.5 392.5,105C 397.833,109.667 397.833,114.333 392.5,119C 278.465,119.01 164.465,119.677 50.5,121C 47.2456,123.342 45.4123,126.509 45,130.5C 44.5,196.832 44.3333,263.166 44.5,329.5C 48.1667,329.5 51.8333,329.5 55.5,329.5C 41.4299,278.645 52.7633,234.478 89.5,197C 82.6628,192.747 75.6628,188.747 68.5,185C 63.7886,180.86 62.2886,175.694 64,169.5C 65.8333,166.333 68.3333,163.833 71.5,162C 78.2914,158.702 84.9581,155.202 91.5,151.5C 96.2533,143.662 100.753,135.662 105,127.5C 111.391,120.409 118.391,119.743 126,125.5C 130.454,134.244 135.287,142.744 140.5,151C 148.662,155.247 156.662,159.747 164.5,164.5C 182.125,162.516 199.291,164.516 216,170.5C 242.513,161.572 269.18,161.239 296,169.5C 350.642,154.819 396.642,168.486 434,210.5C 460.78,246.508 467.947,286.174 455.5,329.5C 459.167,329.5 462.833,329.5 466.5,329.5C 466.667,263.166 466.5,196.832 466,130.5C 465.687,126.035 463.521,122.868 459.5,121C 445.794,120.039 432.127,119.039 418.5,118C 416.607,115.083 416.107,111.916 417,108.5C 417.5,106.667 418.667,105.5 420.5,105C 434.833,104.333 449.167,104.333 463.5,105C 472,108.167 477.833,114 481,122.5C 481.667,222.833 481.667,323.167 481,423.5C 477.833,432 472,437.833 463.5,441C 324.833,441.667 186.167,441.667 47.5,441C 39,437.833 33.1667,432 30,423.5C 29.3333,323.167 29.3333,222.833 30,122.5C 33.3531,113.982 39.1865,107.982 47.5,104.5 Z M 115.5,141.5 C 112.28,148.271 108.78,154.937 105,161.5C 98.0924,166.066 90.9257,170.232 83.5,174C 89.6697,177.919 96.0031,181.586 102.5,185C 107.629,192.086 112.129,199.586 116,207.5C 119.667,200.833 123.333,194.167 127,187.5C 134.084,183.041 141.25,178.708 148.5,174.5C 141.749,170.374 134.915,166.374 128,162.5C 124.311,155.106 120.144,148.106 115.5,141.5 Z M 168.5,179.5 C 167.386,180.885 166.386,182.385 165.5,184C 156.407,188.768 147.574,193.934 139,199.5C 135.412,205.675 132.078,212.009 129,218.5C 124.271,227.298 117.438,229.465 108.5,225C 104.712,220.594 101.545,215.761 99,210.5C 66.6838,244.779 57.8504,284.445 72.5,329.5C 84.8378,329.667 97.1712,329.5 109.5,329C 106.323,323.813 103.823,318.313 102,312.5C 92.8632,275.57 103.696,246.07 134.5,224C 169.381,205.746 201.548,209.58 231,235.5C 255.498,264.321 258.998,295.487 241.5,329C 253.829,329.5 266.162,329.667 278.5,329.5C 287.998,302.776 287.831,276.11 278,249.5C 256.61,202.871 220.11,179.537 168.5,179.5 Z M 247.5,179.5 C 245.031,180.317 242.365,180.817 239.5,181C 254.652,189.482 267.319,200.815 277.5,215C 289.182,218.338 299.515,224.005 308.5,232C 335.911,260.573 340.911,292.74 323.5,328.5C 335.5,329.833 347.5,329.833 359.5,328.5C 369.224,300.981 368.724,273.647 358,246.5C 335.536,200.837 298.703,178.504 247.5,179.5 Z M 325.5,179.5 C 324.048,180.302 322.382,180.802 320.5,181C 335.988,189.817 348.988,201.484 359.5,216C 368.107,219.302 376.107,223.635 383.5,229C 414.382,257.835 420.382,291.168 401.5,329C 413.829,329.5 426.162,329.667 438.5,329.5C 450.003,296.22 447.17,264.22 430,233.5C 405.446,196.137 370.613,178.137 325.5,179.5 Z M 168.5,228.5 C 152.282,231.184 138.782,238.85 128,251.5C 109.6,277.724 110.1,303.558 129.5,329C 160.167,329.667 190.833,329.667 221.5,329C 234.365,313.706 238.865,296.206 235,276.5C 224.835,243.991 202.668,227.991 168.5,228.5 Z M 291.5,239.5 C 303.202,269.022 304.536,299.022 295.5,329.5C 298.247,329.813 300.914,329.48 303.5,328.5C 309.781,321.272 313.947,312.939 316,303.5C 320.897,276.99 312.73,255.657 291.5,239.5 Z M 374.5,243.5 C 384.326,271.622 384.992,299.955 376.5,328.5C 379.567,330.052 382.067,329.385 384,326.5C 387.172,322.159 389.839,317.492 392,312.5C 401.334,285.501 395.501,262.501 374.5,243.5 Z M 44.5,345.5 C 44.5,350.167 44.5,354.833 44.5,359.5C 185.167,359.5 325.833,359.5 466.5,359.5C 466.5,354.833 466.5,350.167 466.5,345.5C 325.833,345.5 185.167,345.5 44.5,345.5 Z M 44.5,375.5 C 44.3334,388.837 44.5001,402.171 45,415.5C 45.8333,421.667 49.3333,425.167 55.5,426C 188.833,426.667 322.167,426.667 455.5,426C 461.667,425.167 465.167,421.667 466,415.5C 466.5,402.171 466.667,388.837 466.5,375.5C 453.496,375.333 440.496,375.5 427.5,376C 390.263,412.435 346.43,423.602 296,409.5C 269.177,417.767 242.511,417.434 216,408.5C 165.35,423.796 121.183,412.962 83.5,376C 70.5043,375.5 57.5043,375.333 44.5,375.5 Z M 107.5,376.5 C 152.928,407.33 198.261,407.163 243.5,376C 197.998,375.169 152.665,375.335 107.5,376.5 Z M 267.5,375.5 C 259.511,384.654 250.177,392.154 239.5,398C 271.021,402.704 299.355,395.37 324.5,376C 305.503,375.5 286.503,375.333 267.5,375.5 Z M 348.5,375.5 C 340.567,384.266 331.567,391.766 321.5,398C 351.871,401.908 379.204,394.574 403.5,376C 385.17,375.5 366.836,375.333 348.5,375.5 Z"/></g>
</svg>
