<?xml version="1.0" encoding="UTF-8"?>
<!DOCTYPE svg PUBLIC "-//W3C//DTD SVG 1.1//EN" "http://www.w3.org/Graphics/SVG/1.1/DTD/svg11.dtd">
<svg xmlns="http://www.w3.org/2000/svg" version="1.1" width="512px" height="512px" style="shape-rendering:geometricPrecision; text-rendering:geometricPrecision; image-rendering:optimizeQuality; fill-rule:evenodd; clip-rule:evenodd" xmlns:xlink="http://www.w3.org/1999/xlink">
<g><path style="opacity:0.934" fill="#000000" d="M 511.5,202.5 C 511.5,205.167 511.5,207.833 511.5,210.5C 509.99,211.836 508.323,213.003 506.5,214C 442.168,214.5 377.834,214.667 313.5,214.5C 313.333,253.168 313.5,291.835 314,330.5C 336.111,353.797 360.611,356.63 387.5,339C 391.535,335.3 395.202,331.3 398.5,327C 401.967,324.214 405.634,323.88 409.5,326C 428.151,350.163 451.484,356.163 479.5,344C 482.833,341.667 486.167,339.333 489.5,337C 492.833,332.333 496.833,328.333 501.5,325C 505.531,324.182 508.864,325.349 511.5,328.5C 511.5,331.167 511.5,333.833 511.5,336.5C 490.249,363.97 462.916,372.47 429.5,362C 420.138,357.991 411.805,352.491 404.5,345.5C 377.521,369.827 348.187,372.993 316.5,355C 312.667,351.833 308.833,348.667 305,345.5C 283.581,366.046 258.747,371.546 230.5,362C 221.241,358.067 213.075,352.567 206,345.5C 179.684,369.396 150.851,372.896 119.5,356C 114.733,353.069 110.399,349.569 106.5,345.5C 80.9205,369.036 52.5872,372.87 21.5,357C 12.6864,351.684 5.35309,344.851 -0.5,336.5C -0.5,333.833 -0.5,331.167 -0.5,328.5C 2.13614,325.349 5.46947,324.182 9.5,325C 14.1667,328.333 18.1667,332.333 21.5,337C 48.8464,356.799 74.3464,354.632 98,330.5C 98.3333,310.5 98.6667,290.5 99,270.5C 102.013,265.465 106.18,264.298 111.5,267C 112.701,267.903 113.535,269.069 114,270.5C 114.333,290.5 114.667,310.5 115,330.5C 119.794,336.3 125.46,340.967 132,344.5C 132.333,274.833 132.667,205.167 133,135.5C 138.622,108.211 155.122,92.0443 182.5,87C 218.09,86.2566 238.923,103.423 245,138.5C 245.5,158.497 245.667,178.497 245.5,198.5C 251.5,198.5 257.5,198.5 263.5,198.5C 263.667,178.831 263.5,159.164 263,139.5C 257.96,99.7946 235.793,76.2946 196.5,69C 158.731,67.5392 132.731,84.2058 118.5,119C 116.783,123.7 115.617,128.533 115,133.5C 114.667,171.167 114.333,208.833 114,246.5C 110.987,251.535 106.82,252.702 101.5,250C 100.299,249.097 99.4652,247.931 99,246.5C 98.5002,235.839 98.3335,225.172 98.5,214.5C 67.4982,214.667 36.4982,214.5 5.5,214C 2.74583,213.401 0.745833,211.901 -0.5,209.5C -0.5,207.5 -0.5,205.5 -0.5,203.5C 0.646381,201.525 2.31305,200.025 4.5,199C 35.8316,198.5 67.1649,198.333 98.5,198.5C 98.0711,174.132 98.5711,149.799 100,125.5C 108.014,90.2971 129.181,67.1305 163.5,56C 200.039,47.1823 231.206,56.3489 257,83.5C 262.456,90.2981 267.123,97.6314 271,105.5C 290.123,68.5126 320.623,51.0126 362.5,53C 412.201,61.7025 439.368,91.2025 444,141.5C 444.5,160.497 444.667,179.497 444.5,198.5C 465.503,198.333 486.503,198.5 507.5,199C 509.35,199.69 510.684,200.856 511.5,202.5 Z M 346.5,68.5 C 381.529,67.9202 406.696,83.2535 422,114.5C 424.277,120.332 425.944,126.332 427,132.5C 428.366,154.474 428.866,176.474 428.5,198.5C 422.5,198.5 416.5,198.5 410.5,198.5C 410.839,191.426 410.339,184.426 409,177.5C 405.205,174.197 401.038,173.697 396.5,176C 395.874,176.75 395.374,177.584 395,178.5C 393.671,185.092 393.171,191.759 393.5,198.5C 366.833,198.5 340.167,198.5 313.5,198.5C 313.333,177.831 313.5,157.164 314,136.5C 320.087,113.555 334.92,102.388 358.5,103C 375.028,105.675 386.195,114.842 392,130.5C 393,139.167 394,147.833 395,156.5C 399.667,161.833 404.333,161.833 409,156.5C 413.568,126.467 402.402,104.634 375.5,91C 342.823,80.6664 318.323,90.4998 302,120.5C 300.259,125.054 298.926,129.721 298,134.5C 297.667,199.833 297.333,265.167 297,330.5C 292.07,336.122 286.403,340.789 280,344.5C 279.016,272.131 279.349,199.797 281,127.5C 290.109,93.5517 311.942,73.885 346.5,68.5 Z M 184.5,102.5 C 209.475,102.726 224.308,115.06 229,139.5C 229.5,159.164 229.667,178.831 229.5,198.5C 202.5,198.5 175.5,198.5 148.5,198.5C 148.333,178.164 148.5,157.831 149,137.5C 153.479,118.187 165.312,106.52 184.5,102.5 Z M 148.5,214.5 C 186.833,214.5 225.167,214.5 263.5,214.5C 263.5,226.5 263.5,238.5 263.5,250.5C 225.167,250.5 186.833,250.5 148.5,250.5C 148.5,238.5 148.5,226.5 148.5,214.5 Z M 148.5,266.5 C 186.833,266.5 225.167,266.5 263.5,266.5C 263.5,273.167 263.5,279.833 263.5,286.5C 225.167,286.5 186.833,286.5 148.5,286.5C 148.5,279.833 148.5,273.167 148.5,266.5 Z M 148.5,302.5 C 186.833,302.5 225.167,302.5 263.5,302.5C 263.825,318.411 263.491,334.244 262.5,350C 240.644,351.738 223.311,343.738 210.5,326C 207.463,324.15 204.463,324.15 201.5,326C 195.052,333.455 187.718,339.788 179.5,345C 169.669,349.599 159.336,351.433 148.5,350.5C 148.5,334.5 148.5,318.5 148.5,302.5 Z"/></g>
<g><path style="opacity:0.919" fill="#000000" d="M 53.5,416.5 C 56.3198,416.248 58.9865,416.748 61.5,418C 82.8672,444.274 108.201,448.94 137.5,432C 142.833,428 147.5,423.333 151.5,418C 153.695,416.627 156.029,416.294 158.5,417C 165.18,423.345 172.18,429.345 179.5,435C 188.813,440.162 198.813,442.829 209.5,443C 213.277,445.955 214.443,449.788 213,454.5C 210.6,457.616 207.433,458.949 203.5,458.5C 185.077,457.478 169.41,450.478 156.5,437.5C 130.818,460.526 102.485,464.359 71.5,449C 64.8708,444.428 58.7041,439.262 53,433.5C 46.8621,427.433 47.0287,421.766 53.5,416.5 Z"/></g>
<g><path style="opacity:0.921" fill="#000000" d="M 252.5,416.5 C 255.32,416.248 257.986,416.748 260.5,418C 282.392,444.926 308.058,449.26 337.5,431C 341.682,426.985 345.682,422.818 349.5,418.5C 352.749,416.147 356.082,415.981 359.5,418C 382.924,445.956 409.591,449.622 439.5,429C 443.289,424.721 447.289,420.721 451.5,417C 457.905,415.533 461.572,418.033 462.5,424.5C 458.908,432.937 453.241,439.77 445.5,445C 413.308,464.932 382.975,462.432 354.5,437.5C 332.466,458.437 307.133,463.604 278.5,453C 270.143,448.824 262.476,443.657 255.5,437.5C 249.784,443.354 243.117,447.687 235.5,450.5C 228.501,448.503 226.335,444.17 229,437.5C 237.973,431.689 245.806,424.689 252.5,416.5 Z"/></g>
</svg>
