<?xml version="1.0" encoding="UTF-8"?>
<!DOCTYPE svg PUBLIC "-//W3C//DTD SVG 1.1//EN" "http://www.w3.org/Graphics/SVG/1.1/DTD/svg11.dtd">
<svg xmlns="http://www.w3.org/2000/svg" version="1.1" width="512px" height="512px" style="shape-rendering:geometricPrecision; text-rendering:geometricPrecision; image-rendering:optimizeQuality; fill-rule:evenodd; clip-rule:evenodd" xmlns:xlink="http://www.w3.org/1999/xlink">
<g><path style="opacity:0.969" fill="#000000" d="M 109.5,-0.5 C 206.833,-0.5 304.167,-0.5 401.5,-0.5C 406.772,1.30606 410.272,4.97272 412,10.5C 412.667,173.833 412.667,337.167 412,500.5C 409.954,505.71 406.454,509.377 401.5,511.5C 304.167,511.5 206.833,511.5 109.5,511.5C 104.546,509.377 101.046,505.71 99,500.5C 98.3333,337.167 98.3333,173.833 99,10.5C 101.046,5.28997 104.546,1.62331 109.5,-0.5 Z M 114.5,15.5 C 208.5,15.5 302.5,15.5 396.5,15.5C 396.5,175.5 396.5,335.5 396.5,495.5C 302.5,495.5 208.5,495.5 114.5,495.5C 114.5,335.5 114.5,175.5 114.5,15.5 Z M 333.5,226.5 C 340.167,226.5 346.833,226.5 353.5,226.5C 353.5,227.833 353.5,229.167 353.5,230.5C 348.752,230.275 344.085,230.775 339.5,232C 333.806,237.862 334.473,242.862 341.5,247C 345.486,247.499 349.486,247.666 353.5,247.5C 353.5,259.833 353.5,272.167 353.5,284.5C 346.833,284.5 340.167,284.5 333.5,284.5C 333.5,265.167 333.5,245.833 333.5,226.5 Z"/></g>
<g><path style="opacity:0.943" fill="#000000" d="M 327.5,210.5 C 338.505,210.333 349.505,210.5 360.5,211C 368.65,214.91 371.984,221.41 370.5,230.5C 376.68,229.829 382.514,230.829 388,233.5C 390.904,239.226 389.738,243.726 384.5,247C 379.845,247.499 375.179,247.666 370.5,247.5C 370.667,261.504 370.5,275.504 370,289.5C 368.594,294.573 365.428,298.073 360.5,300C 349.5,300.667 338.5,300.667 327.5,300C 323,298.167 319.833,295 318,290.5C 317.333,267.167 317.333,243.833 318,220.5C 320.022,215.98 323.189,212.647 327.5,210.5 Z M 333.5,226.5 C 333.5,245.833 333.5,265.167 333.5,284.5C 340.167,284.5 346.833,284.5 353.5,284.5C 353.5,272.167 353.5,259.833 353.5,247.5C 349.486,247.666 345.486,247.499 341.5,247C 334.473,242.862 333.806,237.862 339.5,232C 344.085,230.775 348.752,230.275 353.5,230.5C 353.5,229.167 353.5,227.833 353.5,226.5C 346.833,226.5 340.167,226.5 333.5,226.5 Z"/></g>
</svg>
