<?xml version="1.0" encoding="UTF-8"?>
<!DOCTYPE svg PUBLIC "-//W3C//DTD SVG 1.1//EN" "http://www.w3.org/Graphics/SVG/1.1/DTD/svg11.dtd">
<svg xmlns="http://www.w3.org/2000/svg" version="1.1" width="512px" height="512px" style="shape-rendering:geometricPrecision; text-rendering:geometricPrecision; image-rendering:optimizeQuality; fill-rule:evenodd; clip-rule:evenodd" xmlns:xlink="http://www.w3.org/1999/xlink">
<g><path style="opacity:0.966" fill="#000000" d="M 77.5,15.5 C 94.8365,15.3334 112.17,15.5001 129.5,16C 145.997,17.0326 161.997,20.3659 177.5,26C 183.04,27.8395 187.54,31.0062 191,35.5C 191.573,41.5391 191.239,47.5391 190,53.5C 185.278,84.8919 180.278,116.225 175,147.5C 159.677,161.15 144.011,174.483 128,187.5C 127.5,236.832 127.333,286.166 127.5,335.5C 130.961,335.146 133.461,336.479 135,339.5C 135.667,383.5 135.667,427.5 135,471.5C 132.354,481.31 126.52,488.477 117.5,493C 100.774,499.086 86.941,495.252 76,481.5C 74.2752,478.326 72.9419,474.993 72,471.5C 71.3333,427.5 71.3333,383.5 72,339.5C 73.5388,336.479 76.0388,335.146 79.5,335.5C 79.6667,286.166 79.5,236.832 79,187.5C 62.9893,174.483 47.3227,161.15 32,147.5C 25.9062,112.103 20.4062,76.6034 15.5,41C 15.464,38.3701 15.964,35.8701 17,33.5C 26.8099,26.6706 37.6433,22.1706 49.5,20C 58.9399,18.2492 68.2732,16.7492 77.5,15.5 Z M 101.5,31.5 C 121.06,31.6227 140.394,33.7894 159.5,38C 164.905,39.2993 169.905,41.466 174.5,44.5C 169.38,76.1711 164.214,107.838 159,139.5C 144.541,150.957 130.374,162.79 116.5,175C 107.833,175.667 99.1667,175.667 90.5,175C 76.6256,162.79 62.459,150.957 48,139.5C 42.7864,107.838 37.6197,76.1711 32.5,44.5C 41.5017,39.4441 51.1684,36.2774 61.5,35C 74.9434,33.328 88.2768,32.1614 101.5,31.5 Z M 95.5,191.5 C 100.833,191.5 106.167,191.5 111.5,191.5C 111.5,239.5 111.5,287.5 111.5,335.5C 106.167,335.5 100.833,335.5 95.5,335.5C 95.5,287.5 95.5,239.5 95.5,191.5 Z M 87.5,351.5 C 98.1667,351.5 108.833,351.5 119.5,351.5C 119.667,388.835 119.5,426.168 119,463.5C 115.813,477.344 107.646,481.51 94.5,476C 90.618,472.736 88.4513,468.57 88,463.5C 87.5,426.168 87.3333,388.835 87.5,351.5 Z"/></g>
<g><path style="opacity:0.968" fill="#000000" d="M 401.5,15.5 C 447.789,10.5426 477.622,30.2093 491,74.5C 495.345,91.4092 496.678,108.409 495,125.5C 490.775,133.052 484.608,138.552 476.5,142C 464.553,146.57 452.22,149.404 439.5,150.5C 439.5,212.167 439.5,273.833 439.5,335.5C 442.961,335.146 445.461,336.479 447,339.5C 447.667,383.5 447.667,427.5 447,471.5C 444.354,481.31 438.52,488.477 429.5,493C 412.774,499.086 398.941,495.252 388,481.5C 386.275,478.326 384.942,474.993 384,471.5C 383.333,427.5 383.333,383.5 384,339.5C 385.539,336.479 388.039,335.146 391.5,335.5C 391.5,273.833 391.5,212.167 391.5,150.5C 376.455,149.322 362.121,145.489 348.5,139C 338.335,133.34 333.669,124.673 334.5,113C 334.423,87.4705 341.257,63.9705 355,42.5C 367.215,27.7726 382.715,18.7726 401.5,15.5 Z M 403.5,32.5 C 443.339,28.8283 467.506,46.4949 476,85.5C 477.184,89.4489 477.518,93.4489 477,97.5C 457.231,89.9369 436.731,86.6036 415.5,87.5C 394.269,86.6036 373.769,89.9369 354,97.5C 354.555,80.5002 359.889,65.1669 370,51.5C 379.105,41.3685 390.272,35.0351 403.5,32.5 Z M 413.5,103.5 C 431.946,103.555 449.946,106.389 467.5,112C 471.898,113.524 475.565,116.024 478.5,119.5C 475.565,122.976 471.898,125.476 467.5,127C 437.492,135.982 407.159,137.315 376.5,131C 369.121,129.318 362.121,126.652 355.5,123C 351.5,120.667 351.5,118.333 355.5,116C 363.68,111.607 372.346,108.607 381.5,107C 392.267,105.354 402.933,104.188 413.5,103.5 Z M 407.5,151.5 C 412.833,151.5 418.167,151.5 423.5,151.5C 423.5,212.833 423.5,274.167 423.5,335.5C 418.167,335.5 412.833,335.5 407.5,335.5C 407.5,274.167 407.5,212.833 407.5,151.5 Z M 399.5,351.5 C 410.167,351.5 420.833,351.5 431.5,351.5C 431.667,388.835 431.5,426.168 431,463.5C 427.813,477.344 419.646,481.51 406.5,476C 402.618,472.736 400.451,468.57 400,463.5C 399.5,426.168 399.333,388.835 399.5,351.5 Z"/></g>
<g><path style="opacity:0.984" fill="#000000" d="M 99.5,47.5 C 102.187,47.3359 104.854,47.5026 107.5,48C 109.333,48.5 110.5,49.6667 111,51.5C 111.667,80.8333 111.667,110.167 111,139.5C 109.471,142.516 106.971,143.849 103.5,143.5C 100.029,143.849 97.5286,142.516 96,139.5C 95.3333,110.167 95.3333,80.8333 96,51.5C 96.6897,49.6498 97.8564,48.3164 99.5,47.5 Z"/></g>
<g><path style="opacity:0.927" fill="#000000" d="M 59.5,55.5 C 66.0837,53.8683 70.2504,56.2017 72,62.5C 75.4081,85.4249 77.7414,108.425 79,131.5C 78.5,133.333 77.3333,134.5 75.5,135C 68.9227,137.13 64.756,134.964 63,128.5C 59.5919,105.575 57.2586,82.5751 56,59.5C 56.6897,57.6498 57.8564,56.3164 59.5,55.5 Z"/></g>
<g><path style="opacity:0.927" fill="#000000" d="M 139.5,55.5 C 148.301,53.714 152.301,57.214 151.5,66C 149.206,86.856 146.706,107.689 144,128.5C 143.403,133.548 140.57,135.882 135.5,135.5C 128.909,135.194 126.243,131.694 127.5,125C 129.794,104.144 132.294,83.3106 135,62.5C 135.53,59.415 137.03,57.0817 139.5,55.5 Z"/></g>
<g><path style="opacity:0.96" fill="#000000" d="M 244.5,79.5 C 274.575,76.7862 297.075,88.4528 312,114.5C 327.226,145.306 331.56,177.64 325,211.5C 316.461,245.916 303.461,278.583 286,309.5C 281.167,317.833 276.333,326.167 271.5,334.5C 275.459,335.327 279.459,335.827 283.5,336C 285.333,336.5 286.5,337.667 287,339.5C 287.667,383.5 287.667,427.5 287,471.5C 284.354,481.31 278.52,488.477 269.5,493C 252.774,499.086 238.941,495.252 228,481.5C 226.275,478.326 224.942,474.993 224,471.5C 223.333,427.5 223.333,383.5 224,339.5C 224.5,337.667 225.667,336.5 227.5,336C 231.541,335.827 235.541,335.327 239.5,334.5C 223.558,307.949 209.724,280.282 198,251.5C 188.724,229.065 183.89,205.731 183.5,181.5C 182.288,151.308 190.788,124.308 209,100.5C 218.773,89.8688 230.606,82.8688 244.5,79.5 Z M 232.5,103.5 C 220.513,129.457 214.513,156.79 214.5,185.5C 215.28,212.744 218.28,239.744 223.5,266.5C 212.729,244.684 205.229,221.684 201,197.5C 198.151,172.776 201.817,149.109 212,126.5C 216.901,117.1 223.734,109.433 232.5,103.5 Z M 278.5,103.5 C 292.559,113.754 301.726,127.42 306,144.5C 314.139,178.024 311.472,210.691 298,242.5C 294.528,251.248 290.862,259.915 287,268.5C 292.544,241.145 295.711,213.478 296.5,185.5C 296.492,156.808 290.492,129.475 278.5,103.5 Z M 246.5,113.5 C 247.665,171.332 247.832,229.332 247,287.5C 233.498,242.976 229.498,197.643 235,151.5C 237.291,138.33 241.124,125.663 246.5,113.5 Z M 263.5,113.5 C 269.802,125.34 273.969,138.007 276,151.5C 281.387,197.633 277.387,242.967 264,287.5C 263.5,229.501 263.333,171.501 263.5,113.5 Z M 239.5,351.5 C 250.167,351.5 260.833,351.5 271.5,351.5C 271.667,388.835 271.5,426.168 271,463.5C 267.813,477.344 259.646,481.51 246.5,476C 242.618,472.736 240.451,468.57 240,463.5C 239.5,426.168 239.333,388.835 239.5,351.5 Z"/></g>
</svg>
