<?xml version="1.0" encoding="UTF-8"?>
<!DOCTYPE svg PUBLIC "-//W3C//DTD SVG 1.1//EN" "http://www.w3.org/Graphics/SVG/1.1/DTD/svg11.dtd">
<svg xmlns="http://www.w3.org/2000/svg" version="1.1" width="512px" height="512px" style="shape-rendering:geometricPrecision; text-rendering:geometricPrecision; image-rendering:optimizeQuality; fill-rule:evenodd; clip-rule:evenodd" xmlns:xlink="http://www.w3.org/1999/xlink">
<g><path style="opacity:0.95" fill="#000000" d="M -0.5,405.5 C -0.5,305.5 -0.5,205.5 -0.5,105.5C 1.01027,104.164 2.67694,102.997 4.5,102C 13.5,101.333 22.5,101.333 31.5,102C 43.128,105.624 49.628,113.458 51,125.5C 51.5,162.832 51.6667,200.165 51.5,237.5C 73.5393,237.067 95.5393,237.567 117.5,239C 127.397,241.899 133.564,248.399 136,258.5C 136.667,306.833 136.667,355.167 136,403.5C 132.608,409.785 127.775,411.119 121.5,407.5C 120.416,406.335 119.583,405.002 119,403.5C 118.5,365.835 118.333,328.168 118.5,290.5C 84.8333,290.5 51.1667,290.5 17.5,290.5C 17.6667,327.502 17.5,364.502 17,401.5C 15.462,408.191 11.2953,410.691 4.5,409C 2.67694,408.003 1.01027,406.836 -0.5,405.5 Z M 17.5,119.5 C 21.6372,119.146 25.6372,119.646 29.5,121C 31.7676,122.558 32.9343,124.724 33,127.5C 33.5,164.165 33.6667,200.832 33.5,237.5C 28.1667,237.5 22.8333,237.5 17.5,237.5C 17.5,198.167 17.5,158.833 17.5,119.5 Z M 17.5,255.5 C 48.5018,255.333 79.5018,255.5 110.5,256C 114.12,256.284 116.62,258.117 118,261.5C 118.499,265.152 118.665,268.818 118.5,272.5C 84.8333,272.5 51.1667,272.5 17.5,272.5C 17.5,266.833 17.5,261.167 17.5,255.5 Z"/></g>
<g><path style="opacity:0.95" fill="#000000" d="M 511.5,105.5 C 511.5,205.5 511.5,305.5 511.5,405.5C 505.998,410.786 500.498,410.786 495,405.5C 494.667,404.167 494.333,402.833 494,401.5C 493.5,364.502 493.333,327.502 493.5,290.5C 459.833,290.5 426.167,290.5 392.5,290.5C 392.667,328.168 392.5,365.835 392,403.5C 389.598,409.092 385.431,410.925 379.5,409C 377.274,407.773 375.774,405.939 375,403.5C 374.333,355.167 374.333,306.833 375,258.5C 377.436,248.399 383.603,241.899 393.5,239C 415.461,237.567 437.461,237.067 459.5,237.5C 459.333,200.165 459.5,162.832 460,125.5C 461.372,113.458 467.872,105.624 479.5,102C 488.5,101.333 497.5,101.333 506.5,102C 508.323,102.997 509.99,104.164 511.5,105.5 Z M 483.5,119.5 C 486.833,119.5 490.167,119.5 493.5,119.5C 493.5,158.833 493.5,198.167 493.5,237.5C 488.167,237.5 482.833,237.5 477.5,237.5C 477.333,200.832 477.5,164.165 478,127.5C 478.49,123.854 480.323,121.187 483.5,119.5 Z M 400.5,255.5 C 431.5,255.5 462.5,255.5 493.5,255.5C 493.5,261.167 493.5,266.833 493.5,272.5C 459.833,272.5 426.167,272.5 392.5,272.5C 392.335,268.818 392.501,265.152 393,261.5C 394.542,258.108 397.042,256.108 400.5,255.5 Z"/></g>
<g><path style="opacity:0.949" fill="#000000" d="M 133.5,152.5 C 215.891,152.008 298.224,152.508 380.5,154C 381.701,154.903 382.535,156.069 383,157.5C 383.667,169.167 383.667,180.833 383,192.5C 379.23,203.934 371.396,210.767 359.5,213C 339.169,213.5 318.836,213.667 298.5,213.5C 300.178,237.822 288.844,249.156 264.5,247.5C 264.5,284.167 264.5,320.833 264.5,357.5C 274.839,357.334 285.172,357.5 295.5,358C 306.009,360.509 312.509,367.009 315,377.5C 315.667,386.5 315.667,395.5 315,404.5C 314.167,406.667 312.667,408.167 310.5,409C 273.833,409.667 237.167,409.667 200.5,409C 198.333,408.167 196.833,406.667 196,404.5C 195.333,395.5 195.333,386.5 196,377.5C 198.491,367.009 204.991,360.509 215.5,358C 225.828,357.5 236.161,357.334 246.5,357.5C 246.5,320.833 246.5,284.167 246.5,247.5C 222.156,249.156 210.822,237.822 212.5,213.5C 192.164,213.667 171.831,213.5 151.5,213C 139.629,210.795 131.795,203.962 128,192.5C 127.333,180.833 127.333,169.167 128,157.5C 129.107,154.887 130.94,153.22 133.5,152.5 Z M 145.5,170.5 C 218.833,170.5 292.167,170.5 365.5,170.5C 365.666,176.842 365.5,183.175 365,189.5C 363.125,192.187 360.625,194.021 357.5,195C 289.5,195.667 221.5,195.667 153.5,195C 149.98,194.496 147.48,192.663 146,189.5C 145.5,183.175 145.334,176.842 145.5,170.5 Z M 230.5,213.5 C 247.167,213.5 263.833,213.5 280.5,213.5C 280.665,217.182 280.499,220.848 280,224.5C 278.891,226.815 277.057,228.315 274.5,229C 261.833,229.667 249.167,229.667 236.5,229C 233.943,228.315 232.109,226.815 231,224.5C 230.501,220.848 230.335,217.182 230.5,213.5 Z M 218.5,375.5 C 243.169,375.333 267.836,375.5 292.5,376C 294.667,376.833 296.167,378.333 297,380.5C 297.499,384.152 297.665,387.818 297.5,391.5C 269.5,391.5 241.5,391.5 213.5,391.5C 213.335,387.818 213.501,384.152 214,380.5C 215.025,378.313 216.525,376.646 218.5,375.5 Z"/></g>
</svg>
