<?xml version="1.0" encoding="UTF-8"?>
<!DOCTYPE svg PUBLIC "-//W3C//DTD SVG 1.1//EN" "http://www.w3.org/Graphics/SVG/1.1/DTD/svg11.dtd">
<svg xmlns="http://www.w3.org/2000/svg" version="1.1" width="512px" height="512px" style="shape-rendering:geometricPrecision; text-rendering:geometricPrecision; image-rendering:optimizeQuality; fill-rule:evenodd; clip-rule:evenodd" xmlns:xlink="http://www.w3.org/1999/xlink">
<g><path style="opacity:0.943" fill="#000000" d="M 202.5,37.5 C 211.506,37.3336 220.506,37.5002 229.5,38C 230.482,46.081 230.816,54.2476 230.5,62.5C 220.833,62.5 211.167,62.5 201.5,62.5C 201.198,54.0817 201.531,45.7483 202.5,37.5 Z"/></g>
<g><path style="opacity:0.955" fill="#000000" d="M 201.5,76.5 C 211.167,76.5 220.833,76.5 230.5,76.5C 227.056,94.9179 232.556,109.918 247,121.5C 248.774,124.715 250.274,128.048 251.5,131.5C 227.695,138.935 203.862,146.268 180,153.5C 176.281,136.009 181.281,121.675 195,110.5C 196.586,108.33 197.92,105.996 199,103.5C 201.034,94.6183 201.868,85.6183 201.5,76.5 Z"/></g>
<g><path style="opacity:0.981" fill="#000000" d="M 36.5,140.5 C 50.7201,139.905 60.2201,146.238 65,159.5C 65.3333,211.167 65.6667,262.833 66,314.5C 66.9729,318.406 69.4729,320.573 73.5,321C 111.226,321.018 148.893,321.685 186.5,323C 199.707,330.589 204.207,341.755 200,356.5C 196.076,364.882 189.576,370.049 180.5,372C 142.833,372.667 105.167,372.667 67.5,372C 37.793,367.293 20.293,350.126 15,320.5C 14.3333,267.5 14.3333,214.5 15,161.5C 18.1274,150.204 25.294,143.204 36.5,140.5 Z"/></g>
<g><path style="opacity:0.981" fill="#000000" d="M 467.5,140.5 C 482.536,140.042 492.036,147.042 496,161.5C 496.667,214.5 496.667,267.5 496,320.5C 491.703,347.131 476.536,363.964 450.5,371C 410.529,372.625 370.529,372.958 330.5,372C 314.463,367.609 307.63,357.109 310,340.5C 312.285,332.549 317.119,326.715 324.5,323C 362.107,321.685 399.774,321.018 437.5,321C 440.034,320.484 442.2,319.317 444,317.5C 445.32,264.892 445.987,212.225 446,159.5C 449.465,148.868 456.632,142.535 467.5,140.5 Z"/></g>
<g><path style="opacity:0.943" fill="#000000" d="M 248.5,147.5 C 249.833,147.5 251.167,147.5 252.5,147.5C 252.5,157.167 252.5,166.833 252.5,176.5C 228.173,182.957 204.006,189.957 180,197.5C 179.182,187.589 179.349,177.756 180.5,168C 203.369,161.429 226.036,154.595 248.5,147.5 Z"/></g>
<g><path style="opacity:0.955" fill="#000000" d="M 281.5,163.5 C 298.167,163.5 314.833,163.5 331.5,163.5C 331.666,173.506 331.5,183.506 331,193.5C 329.244,202.423 324.077,208.423 315.5,211.5C 314.502,219.807 314.169,228.14 314.5,236.5C 309.167,236.5 303.833,236.5 298.5,236.5C 298.831,228.14 298.498,219.807 297.5,211.5C 290.38,208.215 285.547,202.882 283,195.5C 281.625,184.889 281.125,174.222 281.5,163.5 Z"/></g>
<g><path style="opacity:0.956" fill="#000000" d="M 248.5,191.5 C 249.833,191.5 251.167,191.5 252.5,191.5C 252.666,201.172 252.5,210.839 252,220.5C 250.345,228.155 245.845,233.321 238.5,236C 223.167,236.667 207.833,236.667 192.5,236C 182.177,231.524 178.01,223.691 180,212.5C 202.949,205.57 225.783,198.57 248.5,191.5 Z"/></g>
<g><path style="opacity:0.975" fill="#000000" d="M 128.5,251.5 C 213.167,251.333 297.834,251.5 382.5,252C 395.035,257.594 398.535,266.761 393,279.5C 390.313,283.194 386.813,285.694 382.5,287C 297.833,287.667 213.167,287.667 128.5,287C 115.965,281.406 112.465,272.239 118,259.5C 120.855,255.789 124.355,253.123 128.5,251.5 Z"/></g>
<g><path style="opacity:0.973" fill="#000000" d="M 237.5,302.5 C 249.5,302.5 261.5,302.5 273.5,302.5C 273.5,354.167 273.5,405.833 273.5,457.5C 284.838,457.333 296.172,457.5 307.5,458C 312.436,462.344 312.769,467.01 308.5,472C 290.921,473.154 273.255,473.654 255.5,473.5C 237.745,473.654 220.079,473.154 202.5,472C 198.231,467.01 198.564,462.344 203.5,458C 214.828,457.5 226.162,457.333 237.5,457.5C 237.5,405.833 237.5,354.167 237.5,302.5 Z"/></g>
<g><path style="opacity:0.957" fill="#000000" d="M 51.5,383.5 C 62.6456,386.175 73.979,387.175 85.5,386.5C 82.0845,412.824 78.7512,439.157 75.5,465.5C 63.8333,465.5 52.1667,465.5 40.5,465.5C 43.7949,438.103 47.4616,410.77 51.5,383.5 Z"/></g>
<g><path style="opacity:0.956" fill="#000000" d="M 457.5,383.5 C 458.75,383.577 459.583,384.244 460,385.5C 463.735,412.146 467.235,438.813 470.5,465.5C 458.833,465.5 447.167,465.5 435.5,465.5C 432.249,439.157 428.915,412.824 425.5,386.5C 433.174,386.666 440.841,386.5 448.5,386C 451.742,385.594 454.742,384.761 457.5,383.5 Z"/></g>
<g><path style="opacity:0.956" fill="#000000" d="M 129.5,386.5 C 140.853,386.168 152.186,386.501 163.5,387.5C 167.493,413.445 171.16,439.445 174.5,465.5C 162.833,465.5 151.167,465.5 139.5,465.5C 135.792,439.213 132.459,412.879 129.5,386.5 Z"/></g>
<g><path style="opacity:0.956" fill="#000000" d="M 347.5,386.5 C 358.833,386.5 370.167,386.5 381.5,386.5C 378.541,412.879 375.208,439.213 371.5,465.5C 359.833,465.5 348.167,465.5 336.5,465.5C 339.922,439.12 343.589,412.787 347.5,386.5 Z"/></g>
</svg>
