<?xml version="1.0" encoding="UTF-8"?>
<!DOCTYPE svg PUBLIC "-//W3C//DTD SVG 1.1//EN" "http://www.w3.org/Graphics/SVG/1.1/DTD/svg11.dtd">
<svg xmlns="http://www.w3.org/2000/svg" version="1.1" width="512px" height="512px" style="shape-rendering:geometricPrecision; text-rendering:geometricPrecision; image-rendering:optimizeQuality; fill-rule:evenodd; clip-rule:evenodd" xmlns:xlink="http://www.w3.org/1999/xlink">
<g><path style="opacity:0.982" fill="#000000" d="M 249.5,-0.5 C 253.5,-0.5 257.5,-0.5 261.5,-0.5C 342.097,40.7991 423.097,81.6324 504.5,122C 507.412,124.015 509.745,126.515 511.5,129.5C 511.5,133.5 511.5,137.5 511.5,141.5C 509.685,145.479 506.685,148.312 502.5,150C 425.167,150.5 347.834,150.667 270.5,150.5C 270.5,200.833 270.5,251.167 270.5,301.5C 307.502,301.333 344.502,301.5 381.5,302C 390.475,307.152 392.975,314.652 389,324.5C 387.235,327.473 384.735,329.64 381.5,331C 364.157,331.167 346.824,331.667 329.5,332.5C 321.167,362.833 301.833,382.167 271.5,390.5C 270.5,420.826 270.167,451.159 270.5,481.5C 288.261,481.027 305.927,481.527 323.5,483C 328.592,486.017 330.926,490.517 330.5,496.5C 330.357,503.291 327.357,508.291 321.5,511.5C 277.5,511.5 233.5,511.5 189.5,511.5C 180.546,506.158 178.046,498.492 182,488.5C 183.167,486 185,484.167 187.5,483C 205.073,481.527 222.739,481.027 240.5,481.5C 240.833,451.159 240.5,420.826 239.5,390.5C 209.167,382.167 189.833,362.833 181.5,332.5C 164.176,331.667 146.843,331.167 129.5,331C 120.525,325.848 118.025,318.348 122,308.5C 123.765,305.527 126.265,303.36 129.5,302C 166.498,301.5 203.498,301.333 240.5,301.5C 240.5,251.167 240.5,200.833 240.5,150.5C 163.166,150.667 85.8326,150.5 8.5,150C 4.31481,148.312 1.31481,145.479 -0.5,141.5C -0.5,137.5 -0.5,133.5 -0.5,129.5C 1.25495,126.515 3.58828,124.015 6.5,122C 87.8718,81.6479 168.872,40.8145 249.5,-0.5 Z M 254.5,41.5 C 255.496,41.4142 256.329,41.7476 257,42.5C 276.167,68.3333 295.333,94.1667 314.5,120C 275.167,120.667 235.833,120.667 196.5,120C 216.051,93.9557 235.384,67.789 254.5,41.5 Z M 201.5,58.5 C 202.525,58.8966 202.692,59.5632 202,60.5C 187.045,80.244 172.212,100.077 157.5,120C 131.833,120.667 106.167,120.667 80.5,120C 120.894,99.47 161.228,78.97 201.5,58.5 Z M 308.5,58.5 C 349.296,78.7311 389.962,99.2311 430.5,120C 404.833,120.667 379.167,120.667 353.5,120C 338.257,99.6037 323.257,79.1037 308.5,58.5 Z M 213.5,332.5 C 241.33,331.336 269.33,331.17 297.5,332C 282.497,360.112 260.497,367.446 231.5,354C 223.436,348.446 217.436,341.28 213.5,332.5 Z"/></g>
<g><path style="opacity:0.978" fill="#000000" d="M 141.5,511.5 C 137.5,511.5 133.5,511.5 129.5,511.5C 125.521,509.685 122.688,506.685 121,502.5C 120.5,485.503 120.333,468.503 120.5,451.5C 100.833,451.5 81.1667,451.5 61.5,451.5C 61.7884,467.522 61.4551,483.522 60.5,499.5C 59.4171,505.024 56.4171,509.024 51.5,511.5C 47.5,511.5 43.5,511.5 39.5,511.5C 35.5212,509.685 32.6878,506.685 31,502.5C 30.6667,461.167 30.3333,419.833 30,378.5C 20.1174,339.63 9.95076,300.963 -0.5,262.5C -0.5,258.5 -0.5,254.5 -0.5,250.5C 4.84176,241.546 12.5084,239.046 22.5,243C 25,244.167 26.8333,246 28,248.5C 38.303,286.045 48.1363,323.712 57.5,361.5C 78.2205,361.047 98.8872,361.547 119.5,363C 135.605,368.771 145.772,379.938 150,396.5C 150.667,431.833 150.667,467.167 150,502.5C 148.312,506.685 145.479,509.685 141.5,511.5 Z M 61.5,391.5 C 76.1705,391.333 90.8371,391.5 105.5,392C 112.038,392.346 116.538,395.513 119,401.5C 120.274,408.103 120.774,414.77 120.5,421.5C 100.833,421.5 81.1667,421.5 61.5,421.5C 61.5,411.5 61.5,401.5 61.5,391.5 Z"/></g>
<g><path style="opacity:0.978" fill="#000000" d="M 511.5,250.5 C 511.5,254.5 511.5,258.5 511.5,262.5C 501.049,300.963 490.883,339.63 481,378.5C 480.667,419.833 480.333,461.167 480,502.5C 478.312,506.685 475.479,509.685 471.5,511.5C 467.5,511.5 463.5,511.5 459.5,511.5C 455.521,509.685 452.688,506.685 451,502.5C 449.59,485.542 449.09,468.542 449.5,451.5C 429.833,451.5 410.167,451.5 390.5,451.5C 390.667,468.503 390.5,485.503 390,502.5C 388.312,506.685 385.479,509.685 381.5,511.5C 377.5,511.5 373.5,511.5 369.5,511.5C 365.521,509.685 362.688,506.685 361,502.5C 360.333,467.167 360.333,431.833 361,396.5C 365.228,379.938 375.395,368.771 391.5,363C 412.113,361.547 432.78,361.047 453.5,361.5C 462.864,323.712 472.697,286.045 483,248.5C 486.017,243.408 490.517,241.074 496.5,241.5C 503.291,241.643 508.291,244.643 511.5,250.5 Z M 405.5,391.5 C 420.167,391.5 434.833,391.5 449.5,391.5C 449.5,401.5 449.5,411.5 449.5,421.5C 429.833,421.5 410.167,421.5 390.5,421.5C 390.226,414.77 390.726,408.103 392,401.5C 394.982,396.005 399.482,392.671 405.5,391.5 Z"/></g>
</svg>
