<?xml version="1.0" encoding="UTF-8"?>
<!DOCTYPE svg PUBLIC "-//W3C//DTD SVG 1.1//EN" "http://www.w3.org/Graphics/SVG/1.1/DTD/svg11.dtd">
<svg xmlns="http://www.w3.org/2000/svg" version="1.1" width="512px" height="512px" style="shape-rendering:geometricPrecision; text-rendering:geometricPrecision; image-rendering:optimizeQuality; fill-rule:evenodd; clip-rule:evenodd" xmlns:xlink="http://www.w3.org/1999/xlink">
<g><path style="opacity:0.936" fill="#000000" d="M 161.5,-0.5 C 224.167,-0.5 286.833,-0.5 349.5,-0.5C 355.778,5.35076 360.611,12.3508 364,20.5C 379.949,58.3481 392.283,97.3481 401,137.5C 404.468,170.429 395.801,199.762 375,225.5C 349.864,255.162 318.364,274.828 280.5,284.5C 277.306,330.462 276.806,376.462 279,422.5C 279.214,434.313 280.548,445.98 283,457.5C 283.833,459 285,460.167 286.5,461C 290.723,462.944 295.056,464.611 299.5,466C 312.718,468.981 326.051,471.314 339.5,473C 357.973,476.459 364.139,486.959 358,504.5C 355.175,507.476 352.008,509.809 348.5,511.5C 286.5,511.5 224.5,511.5 162.5,511.5C 151.727,506.054 148.227,497.387 152,485.5C 156.584,478.452 163.084,474.285 171.5,473C 186.326,471.196 200.993,468.529 215.5,465C 219.333,463.448 223,461.615 226.5,459.5C 227.806,458.088 228.64,456.421 229,454.5C 231.148,439.245 232.481,423.912 233,408.5C 233.793,367.153 233.627,325.82 232.5,284.5C 182.347,273.351 144.847,245.351 120,200.5C 106.33,171.104 104.997,141.104 116,110.5C 125.185,75.6049 137.518,41.9382 153,9.5C 155.15,5.49725 157.984,2.16392 161.5,-0.5 Z M 168.5,15.5 C 226.501,15.3333 284.501,15.5 342.5,16C 349.209,27.5865 354.709,39.7532 359,52.5C 369.897,81.5227 378.563,111.189 385,141.5C 387.334,168.494 380.001,192.494 363,213.5C 338.331,242.925 307.165,261.758 269.5,270C 268.069,270.465 266.903,271.299 266,272.5C 264.149,277.992 263.149,283.658 263,289.5C 260.723,340.524 261.056,391.524 264,442.5C 262.216,461.683 270.382,474.183 288.5,480C 303.906,484.297 319.573,487.297 335.5,489C 339.445,489.462 342.445,491.295 344.5,494.5C 285.167,495.833 225.833,495.833 166.5,494.5C 168.555,491.295 171.555,489.462 175.5,489C 191.427,487.297 207.094,484.297 222.5,480C 231.025,477.462 237.858,472.629 243,465.5C 245.808,455.708 247.475,445.708 248,435.5C 250.766,384.848 251.1,334.181 249,283.5C 249.87,277.436 247.704,272.936 242.5,270C 195.906,260.697 160.406,235.864 136,195.5C 123.476,169.125 122.143,142.125 132,114.5C 137.864,93.575 144.531,72.9083 152,52.5C 156.433,39.6379 161.933,27.3046 168.5,15.5 Z"/></g>
<g><path style="opacity:0.987" fill="#000000" d="M 149.5,168.5 C 220.17,168.167 290.836,168.5 361.5,169.5C 362.351,176.757 361.184,183.757 358,190.5C 326.266,244.543 279.766,263.71 218.5,248C 200.278,241.973 184.778,231.806 172,217.5C 165.601,210.368 159.935,202.701 155,194.5C 150.287,186.332 148.454,177.665 149.5,168.5 Z"/></g>
</svg>
